<?xml version="1.0" encoding="UTF-8"?>
<svg version="1.1" xmlns="http://www.w3.org/2000/svg" width="368" height="276">
<path d="M0 0 C2.06326977 0.08760589 4.1256716 0.19579273 6.1875 0.3125 C7.91033203 0.39951172 7.91033203 0.39951172 9.66796875 0.48828125 C13.18588352 1.02854718 15.15698864 1.89864378 18 4 C19.3125 6.1875 19.3125 6.1875 20 8 C20.99 7.67 21.98 7.34 23 7 C23.3125 9.8125 23.3125 9.8125 23 13 C20.5 14.6875 20.5 14.6875 18 16 C18 16.99 18 17.98 18 19 C19.32 19.33 20.64 19.66 22 20 C22.625 22.375 22.625 22.375 23 25 C22.34 25.66 21.68 26.32 21 27 C19.68 27 18.36 27 17 27 C17 27.66 17 28.32 17 29 C17.825 28.9278125 18.65 28.855625 19.5 28.78125 C48.65737052 26.43824701 48.65737052 26.43824701 60 34 C61.90799528 34.32636761 63.8270727 34.59043606 65.75 34.8125 C71.24910422 35.67692993 75.18778146 36.83003661 79 41 C81.8785699 45.60571184 82.01296579 48.74419876 82 54.125 C82.46068348 62.34208903 87.10089763 66.6882986 92.46728516 72.32666016 C95.03988571 75.13529415 97.32644458 78.15379621 99.625 81.1875 C100.05031006 81.74050781 100.47562012 82.29351562 100.91381836 82.86328125 C105.33890094 88.65545512 105.58625335 92.77652116 105 100 C103.75 102.9375 103.75 102.9375 102 105 C101.401875 105.7425 100.80375 106.485 100.1875 107.25 C98 109 98 109 92 110 C92 123.86 92 137.72 92 152 C98.93 152 105.86 152 113 152 C114.4783226 154.95664519 114.06032783 157.74229737 114 161 C115.051875 161.061875 116.10375 161.12375 117.1875 161.1875 C121.72376302 162.15424458 123.14564526 163.41166833 126 167 C128.21789654 170.73009873 128.26873368 173.88489339 127.61328125 178.0703125 C126.239608 182.39257102 122.60606853 184.59595431 119 187 C116.3125 187.125 116.3125 187.125 114 187 C114 188.98 114 190.96 114 193 C121.92 193 129.84 193 138 193 C137.67 193.66 137.34 194.32 137 195 C18.2 195 -100.6 195 -223 195 C-223 194.34 -223 193.68 -223 193 C-218.38 192.67 -213.76 192.34 -209 192 C-211.31 189.36 -213.62 186.72 -216 184 C-214.22279952 180.44559904 -213.15783592 178.94885792 -210.3671875 176.35546875 C-209.64273438 175.67806641 -208.91828125 175.00066406 -208.171875 174.30273438 C-207.03492188 173.25569336 -207.03492188 173.25569336 -205.875 172.1875 C-205.14023438 171.50107422 -204.40546875 170.81464844 -203.6484375 170.10742188 C-199.45424403 166.20490208 -195.19028989 162.39514451 -190.86669922 158.63696289 C-188.07066885 156.18504246 -185.34663503 153.65884776 -182.625 151.125 C-167.57225894 137.17736913 -167.57225894 137.17736913 -160 131 C-156.78956118 132.38188453 -154.95063635 133.92421903 -152.75 136.625 C-152.22921875 137.25664062 -151.7084375 137.88828125 -151.171875 138.5390625 C-150.78515625 139.02117187 -150.3984375 139.50328125 -150 140 C-146.30504919 136.41157029 -142.95241783 132.66828129 -139.6875 128.6875 C-139.23310547 128.13771484 -138.77871094 127.58792969 -138.31054688 127.02148438 C-137.20474148 125.68287784 -136.10204061 124.34170769 -135 123 C-130.54326841 123.49871064 -128.42312822 125.02004362 -125.1875 128.0625 C-124.39730469 128.79597656 -123.60710937 129.52945313 -122.79296875 130.28515625 C-122.20128906 130.85105469 -121.60960938 131.41695312 -121 132 C-123 137 -123 137 -132 148 C-121.77 148.33 -111.54 148.66 -101 149 C-99.92006658 121.60081045 -99.92006658 121.60081045 -108.96875 96.34375 C-112.35982387 90.76152071 -112.74896117 85.224141 -111.609375 78.796875 C-110.1655785 73.35487279 -107.78694981 69.90571328 -103.40625 66.375 C-99.21019013 63.9772515 -94.75854571 63.42861901 -90 63 C-90.01160156 61.87980469 -90.02320313 60.75960937 -90.03515625 59.60546875 C-90.04453622 58.13281417 -90.0536362 56.66015778 -90.0625 55.1875 C-90.07087891 54.44951172 -90.07925781 53.71152344 -90.08789062 52.95117188 C-90.10259828 49.70077932 -90.03531702 47.10595105 -89 44 C-90.39800384 41.26217785 -90.39800384 41.26217785 -92.375 38.4375 C-96.74795744 31.87806384 -97.77964878 27.95022139 -97 20 C-95.28778032 14.63830636 -91.85130086 11.68369835 -87 9 C-82.1188251 7.3729417 -78.25594987 7.58856815 -73.375 9.1875 C-67.11826449 12.5475987 -63.08891336 18.20536804 -58.75 23.6875 C-57.93789063 24.70166992 -57.93789063 24.70166992 -57.109375 25.73632812 C-53.13616071 30.72767857 -53.13616071 30.72767857 -52 33 C-50.9790625 32.84660156 -49.958125 32.69320312 -48.90625 32.53515625 C-42.46547115 31.73005889 -35.98188724 31.63841216 -29.5 31.4375 C-28.200625 31.39431641 -26.90125 31.35113281 -25.5625 31.30664062 C-22.37509155 31.2011749 -19.18761302 31.09905552 -16 31 C-16.99 30.01 -16.99 30.01 -18 29 C-17.625 26.375 -17.625 26.375 -17 24 C-15.02 23.505 -15.02 23.505 -13 23 C-12.67 21.35 -12.34 19.7 -12 18 C-12.639375 17.71125 -13.27875 17.4225 -13.9375 17.125 C-16 16 -16 16 -17 14 C-16.113125 13.9175 -15.22625 13.835 -14.3125 13.75 C-10.9282695 13.25034292 -10.9282695 13.25034292 -8.625 11 C-5.04295797 8.27082512 -2.44865194 8.30160352 2 8 C2.16681109 5.08347826 2.16681109 5.08347826 2 2 C1.01 1.01 1.01 1.01 0 0 Z M-136 152 C-146.27124735 161.51813423 -146.27124735 161.51813423 -152 173 C-148.04 173 -144.08 173 -140 173 C-140 169.7 -140 166.4 -140 163 C-138.35 163 -136.7 163 -135 163 C-135 159.37 -135 155.74 -135 152 C-135.33 152 -135.66 152 -136 152 Z M-164 157 C-164.61875 157.58116577 -164.61875 157.58116577 -165.25 158.17407227 C-179.02187073 171.09865017 -179.02187073 171.09865017 -184.96484375 176.21875 C-187.76350152 178.66824701 -190.50727084 181.17570278 -193.25 183.6875 C-193.75813232 184.1518042 -194.26626465 184.6161084 -194.78979492 185.09448242 C-197.59724496 187.67157759 -200.30285339 190.30285339 -203 193 C-193.76 193 -184.52 193 -175 193 C-179.44433762 188.22880216 -179.44433762 188.22880216 -183 186 C-182.50849114 181.67053902 -179.7069453 179.00093135 -176.9375 175.875 C-175.93898658 174.72362451 -174.9416021 173.57126906 -173.9453125 172.41796875 C-173.4493457 171.8461084 -172.95337891 171.27424805 -172.44238281 170.68505859 C-169.18533417 166.88002309 -166.09910508 162.93382106 -163 159 C-163.495 158.01 -163.495 158.01 -164 157 Z M114 167 C114 171.62 114 176.24 114 181 C118.80304035 179.45957252 118.80304035 179.45957252 121 177 C121.5838196 174.0850745 121.5838196 174.0850745 121 171 C118.02093958 167.86612729 118.02093958 167.86612729 114 167 Z M-154 174 C-155.81001864 176.01645052 -157.57014353 178.05130278 -159.3125 180.125 C-159.79912109 180.69476563 -160.28574219 181.26453125 -160.78710938 181.8515625 C-161.26599609 182.41875 -161.74488281 182.9859375 -162.23828125 183.5703125 C-162.67180908 184.08352051 -163.10533691 184.59672852 -163.55200195 185.12548828 C-165.50321162 187.65143464 -167.2295047 190.34425706 -169 193 C-161.08 193 -153.16 193 -145 193 C-145 188.71 -145 184.42 -145 180 C-147.64 180 -150.28 180 -153 180 C-153 178.02 -153 176.04 -153 174 C-153.33 174 -153.66 174 -154 174 Z " fill="#D2E241" transform="translate(228,52)"/>
<path d="M0 0 C6.00449342 3.22463535 9.94496573 8.55649143 14.125 13.8125 C14.90399658 14.7873938 14.90399658 14.7873938 15.69873047 15.78198242 C19.92640836 21.12791161 23.83400882 26.64432082 27.6328125 32.30078125 C29.28342679 34.83960058 29.28342679 34.83960058 31.375 36.8125 C34.49696336 37.27736718 34.49696336 37.27736718 38 37.4375 C39.18851562 37.51226562 40.37703125 37.58703125 41.6015625 37.6640625 C42.51679688 37.71304688 43.43203125 37.76203125 44.375 37.8125 C44.35179687 38.60914063 44.32859375 39.40578125 44.3046875 40.2265625 C44.01436362 48.27132996 44.01436362 48.27132996 46.375 55.8125 C46.77074219 56.58980469 47.16648437 57.36710937 47.57421875 58.16796875 C49.8367619 61.84388899 51.69050279 64.39889577 56 65.45703125 C58.98546181 65.49808135 61.8950951 65.34474075 64.86572266 65.05224609 C67.92189597 64.76024744 70.98036356 64.54617852 74.04296875 64.33203125 C78.79025765 63.99774673 83.53385646 63.63419394 88.27734375 63.25 C92.66435192 62.90879566 96.97682693 62.71006802 101.375 62.8125 C101.375 61.4925 101.375 60.1725 101.375 58.8125 C98.075 58.8125 94.775 58.8125 91.375 58.8125 C91.045 57.1625 90.715 55.5125 90.375 53.8125 C89.715 53.8125 89.055 53.8125 88.375 53.8125 C88.17827635 52.08435839 87.99303201 50.35490803 87.8125 48.625 C87.65587891 47.18060547 87.65587891 47.18060547 87.49609375 45.70703125 C87.37741249 42.87016623 87.69734361 40.55826329 88.375 37.8125 C90.49972576 37.75863371 92.62483652 37.71976929 94.75 37.6875 C95.93335938 37.66429687 97.11671875 37.64109375 98.3359375 37.6171875 C101.375 37.8125 101.375 37.8125 103.375 39.8125 C103.375 40.8025 103.375 41.7925 103.375 42.8125 C104.08398438 43.05871094 104.79296875 43.30492187 105.5234375 43.55859375 C108.73371615 44.97023683 111.20901668 46.75677437 114 48.875 C117.91276003 51.85995648 117.91276003 51.85995648 122.375 53.8125 C120.74366718 58.33248557 118.38751913 61.71622163 115.51953125 65.53125 C114.15434467 67.78390772 114.15434467 67.78390772 114.51171875 70.46875 C115.23633325 73.14547924 115.23633325 73.14547924 118.375 74.8125 C116.56123901 84.95822556 112.41244534 92.98002858 107.375 101.8125 C107.045 102.4725 106.715 103.1325 106.375 103.8125 C107.138125 104.080625 107.90125 104.34875 108.6875 104.625 C111.24880884 105.75674112 112.57192938 106.72473401 114.375 108.8125 C114.045 109.4725 113.715 110.1325 113.375 110.8125 C111.87760417 109.51041667 110.38020833 108.20833333 108.8828125 106.90625 C107.41563579 105.61677542 107.41563579 105.61677542 105.375 105.8125 C103.90593333 108.16420347 102.5360287 110.51821357 101.1875 112.9375 C97.27762097 119.67484885 93.94900172 125.32345527 86.22973633 127.83642578 C82.33199147 128.82339037 78.81174089 129.20252481 74.80078125 129.41015625 C74.08655502 129.44907486 73.3723288 129.48799347 72.63645935 129.52809143 C70.32048207 129.65189225 68.00411227 129.76377252 65.6875 129.875 C64.08428639 129.95771617 62.48109638 130.04089113 60.87792969 130.12451172 C46.7165676 130.84939607 32.54842925 131.38667396 18.375 131.8125 C18.045 132.8025 17.715 133.7925 17.375 134.8125 C12.0131321 139.87648635 6.3739048 140.35252049 -0.7890625 140.1796875 C-5.9879955 139.50654741 -9.10252606 137.68785148 -12.625 133.8125 C-15.73482684 129.15781739 -18.13561903 124.1096321 -20.54296875 119.06738281 C-21.56240622 116.94294137 -22.61528857 114.84039435 -23.6875 112.7421875 C-25.70696825 108.78498904 -27.67689524 104.80527103 -29.625 100.8125 C-29.99077148 100.06307129 -30.35654297 99.31364258 -30.73339844 98.54150391 C-31.85125908 96.23982788 -32.95879515 93.93349343 -34.0625 91.625 C-34.40482666 90.91794922 -34.74715332 90.21089844 -35.09985352 89.48242188 C-38.60625113 82.07496717 -39.75670666 75.34739435 -37.625 67.3125 C-35.67132706 62.02130245 -32.51075098 58.6043577 -27.625 55.8125 C-23.97798069 54.73758905 -20.4076616 54.15321768 -16.625 53.8125 C-16.63660156 52.69230469 -16.64820313 51.57210937 -16.66015625 50.41796875 C-16.66953622 48.94531417 -16.6786362 47.47265778 -16.6875 46 C-16.69587891 45.26201172 -16.70425781 44.52402344 -16.71289062 43.76367188 C-16.72759828 40.51327932 -16.66031702 37.91845105 -15.625 34.8125 C-17.02300384 32.07467785 -17.02300384 32.07467785 -19 29.25 C-23.37295744 22.69056384 -24.40464878 18.76272139 -23.625 10.8125 C-21.91278032 5.45080636 -18.47630086 2.49619835 -13.625 -0.1875 C-8.7438251 -1.8145583 -4.88094987 -1.59893185 0 0 Z " fill="#F2698C" transform="translate(154.625,61.1875)"/>
<path d="M0 0 C2.06326977 0.08760589 4.1256716 0.19579273 6.1875 0.3125 C7.91033203 0.39951172 7.91033203 0.39951172 9.66796875 0.48828125 C13.18588352 1.02854718 15.15698864 1.89864378 18 4 C19.3125 6.1875 19.3125 6.1875 20 8 C20.99 7.67 21.98 7.34 23 7 C23.3125 9.8125 23.3125 9.8125 23 13 C20.5 14.6875 20.5 14.6875 18 16 C18 16.99 18 17.98 18 19 C19.98 19.495 19.98 19.495 22 20 C22.625 22.375 22.625 22.375 23 25 C22.34 25.66 21.68 26.32 21 27 C19.68 27 18.36 27 17 27 C17 27.66 17 28.32 17 29 C17.825 28.9278125 18.65 28.855625 19.5 28.78125 C48.65737052 26.43824701 48.65737052 26.43824701 60 34 C61.90799528 34.32636761 63.8270727 34.59043606 65.75 34.8125 C71.24910422 35.67692993 75.18778146 36.83003661 79 41 C81.8785699 45.60571184 82.01296579 48.74419876 82 54.125 C82.46068348 62.34208903 87.10089763 66.6882986 92.46728516 72.32666016 C95.03988571 75.13529415 97.32644458 78.15379621 99.625 81.1875 C100.05031006 81.74050781 100.47562012 82.29351562 100.91381836 82.86328125 C105.33890094 88.65545512 105.58625335 92.77652116 105 100 C103.40290501 103.75317323 101.06353956 106.31940288 98 109 C95.18171822 109.93942726 93.18778331 110.22582627 90.25 110.3125 C89.02023437 110.36857422 89.02023437 110.36857422 87.765625 110.42578125 C83.95109102 109.83851543 81.18935235 108.05159262 78 106 C77.17902832 105.475271 76.35805664 104.95054199 75.51220703 104.40991211 C71.61476591 101.89407594 67.74167543 99.34175459 63.86669922 96.79150391 C59.41643718 93.8678965 54.97149894 90.9522727 50.41796875 88.19140625 C49.43872437 87.59138794 49.43872437 87.59138794 48.43969727 86.97924805 C46.75050973 85.951373 45.05139975 84.93985331 43.3515625 83.9296875 C41 82 41 82 39.87109375 79.71484375 C40.06671899 75.59485765 42.11900525 73.00304992 44.4375 69.6875 C44.87126953 69.04232422 45.30503906 68.39714844 45.75195312 67.73242188 C46.82136972 66.14592473 47.9089544 64.57170116 49 63 C48.41428223 62.87923096 47.82856445 62.75846191 47.22509766 62.6340332 C43.50525087 61.57407686 40.56459006 59.32305887 37.375 57.1875 C36.694375 56.74857422 36.01375 56.30964844 35.3125 55.85742188 C34.33410156 55.20676758 34.33410156 55.20676758 33.3359375 54.54296875 C32.74345215 54.15133545 32.1509668 53.75970215 31.54052734 53.35620117 C30 52 30 52 28 48 C23.71 48 19.42 48 15 48 C15 52.95 15 57.9 15 63 C15.66 63 16.32 63 17 63 C17.33 64.32 17.66 65.64 18 67 C21.3 67.33 24.6 67.66 28 68 C28 69.32 28 70.64 28 72 C22.54722326 72.50000769 17.09419904 72.99703927 11.640625 73.48828125 C8.54563767 73.7671959 5.45222603 74.05348437 2.359375 74.35546875 C-0.42589651 74.61801483 -3.20847687 74.81701313 -6 75 C-7.77310547 75.16822266 -7.77310547 75.16822266 -9.58203125 75.33984375 C-18.74799578 75.88692226 -18.74799578 75.88692226 -22.37109375 73.3203125 C-24.1553887 71.29489661 -25.60590437 69.30731651 -27 67 C-27.66 66.01 -28.32 65.02 -29 64 C-29.44921875 61.51171875 -29.44921875 61.51171875 -29.6875 58.6875 C-29.77386719 57.76324219 -29.86023438 56.83898437 -29.94921875 55.88671875 C-30.00345526 52.80358152 -29.59336001 50.02033631 -29 47 C-29.85722656 47.0928125 -30.71445313 47.185625 -31.59765625 47.28125 C-40.74239773 47.85859557 -40.74239773 47.85859557 -44.3515625 45.39453125 C-47.36018424 41.98262617 -49.75567274 38.42427472 -51 34 C-44.01762154 31.41704496 -36.93760233 31.55370011 -29.5625 31.375 C-27.60666992 31.31699219 -27.60666992 31.31699219 -25.61132812 31.2578125 C-22.40769001 31.16393299 -19.20405168 31.07824846 -16 31 C-16.66 30.34 -17.32 29.68 -18 29 C-17.625 26.375 -17.625 26.375 -17 24 C-15.68 23.67 -14.36 23.34 -13 23 C-12.67 21.35 -12.34 19.7 -12 18 C-12.639375 17.71125 -13.27875 17.4225 -13.9375 17.125 C-16 16 -16 16 -17 14 C-16.113125 13.9175 -15.22625 13.835 -14.3125 13.75 C-10.9282695 13.25034292 -10.9282695 13.25034292 -8.625 11 C-5.04295797 8.27082512 -2.44865194 8.30160352 2 8 C2.16681109 5.08347826 2.16681109 5.08347826 2 2 C1.34 1.34 0.68 0.68 0 0 Z " fill="#F7C439" transform="translate(228,52)"/>
<path d="M0 0 C2.12472576 -0.05386629 4.24983652 -0.09273071 6.375 -0.125 C7.55835938 -0.14820312 8.74171875 -0.17140625 9.9609375 -0.1953125 C13 0 13 0 15 2 C15 2.99 15 3.98 15 5 C15.70898438 5.24621094 16.41796875 5.49242188 17.1484375 5.74609375 C20.35871615 7.15773683 22.83401668 8.94427437 25.625 11.0625 C29.53776003 14.04745648 29.53776003 14.04745648 34 16 C32.36866718 20.51998557 30.01251913 23.90372163 27.14453125 27.71875 C25.77934467 29.97140772 25.77934467 29.97140772 26.13671875 32.65625 C26.86133325 35.33297924 26.86133325 35.33297924 30 37 C28.18623901 47.14572556 24.03744534 55.16752858 19 64 C18.67 64.66 18.34 65.32 18 66 C18.763125 66.268125 19.52625 66.53625 20.3125 66.8125 C22.87380884 67.94424112 24.19692938 68.91223401 26 71 C25.67 71.66 25.34 72.32 25 73 C23.50260417 71.69791667 22.00520833 70.39583333 20.5078125 69.09375 C19.04063579 67.80427542 19.04063579 67.80427542 17 68 C15.03628215 71.08205137 13.23837824 74.21761984 11.453125 77.40429688 C9.36411935 81.03201642 7.69795283 83.79642537 4 86 C3.72027344 85.16597656 3.44054687 84.33195312 3.15234375 83.47265625 C-1.7122531 69.81737313 -8.78276186 61.28958229 -22 55 C-21.95359375 55.65226562 -21.9071875 56.30453125 -21.859375 56.9765625 C-21.6143409 62.90988832 -21.91116293 66.35861738 -26 71 C-29.62187919 74.26852512 -32.20021864 75.74288838 -37.0625 76.4375 C-45.35552248 75.51605306 -51.92070236 69.49042056 -58.1875 64.3203125 C-59.89569375 62.80373567 -59.89569375 62.80373567 -62 63 C-62.9075 63.144375 -63.815 63.28875 -64.75 63.4375 C-69.12464786 62.8486051 -70.2849847 60.90863516 -72.8984375 57.53125 C-73.26195312 57.0259375 -73.62546875 56.520625 -74 56 C-73.67 55.34 -73.34 54.68 -73 54 C-74.0725 53.46375 -75.145 52.9275 -76.25 52.375 C-80.11754488 50.09212868 -82.14712397 48.22455734 -84 44 C-84.80152153 38.13225747 -85.29593881 32.07524415 -81.9375 26.9375 C-78.43470289 23.00419151 -74.82426234 20.39450014 -69.5390625 19.65625 C-60.52337794 19.33136047 -55.25825669 23.30572634 -48.75 29.0625 C-48.12609375 29.60455078 -47.5021875 30.14660156 -46.859375 30.70507812 C-44.51000203 32.75318452 -42.20455343 34.79544657 -40 37 C-37.68351201 38.03842565 -35.35096976 39.0421975 -33 40 C-33.66 38.88625 -34.32 37.7725 -35 36.625 C-37 33.25 -37 33.25 -37 31 C-35.68 31 -34.36 31 -33 31 C-33.66 30.01 -34.32 29.02 -35 28 C-29.28938701 27.56944245 -23.57853217 27.14230336 -17.86743164 26.71826172 C-15.92660705 26.57368233 -13.98585049 26.42818649 -12.04516602 26.28173828 C-9.24773476 26.07080092 -6.45007141 25.86321433 -3.65234375 25.65625 C-2.36129982 25.55781799 -2.36129982 25.55781799 -1.04417419 25.45739746 C3.65303887 25.11347742 8.29023887 24.93331312 13 25 C13 23.68 13 22.36 13 21 C9.7 21 6.4 21 3 21 C2.67 19.35 2.34 17.7 2 16 C1.34 16 0.68 16 0 16 C-0.19672365 14.27185839 -0.38196799 12.54240803 -0.5625 10.8125 C-0.66691406 9.84957031 -0.77132812 8.88664062 -0.87890625 7.89453125 C-0.99758751 5.05766623 -0.67765639 2.74576329 0 0 Z " fill="#FAC73A" transform="translate(243,99)"/>
<path d="M0 0 C0.94746094 0.00451172 1.89492188 0.00902344 2.87109375 0.01367188 C5.16413442 0.02525289 7.45702914 0.04155521 9.75 0.0625 C11.2283226 3.01914519 10.81032783 5.80479737 10.75 9.0625 C11.801875 9.124375 12.85375 9.18625 13.9375 9.25 C18.47376302 10.21674458 19.89564526 11.47416833 22.75 15.0625 C24.96789654 18.79259873 25.01873368 21.94739339 24.36328125 26.1328125 C22.989608 30.45507102 19.35606853 32.65845431 15.75 35.0625 C13.0625 35.1875 13.0625 35.1875 10.75 35.0625 C10.75 37.0425 10.75 39.0225 10.75 41.0625 C18.67 41.0625 26.59 41.0625 34.75 41.0625 C34.42 41.7225 34.09 42.3825 33.75 43.0625 C-85.05 43.0625 -203.85 43.0625 -326.25 43.0625 C-326.25 42.4025 -326.25 41.7425 -326.25 41.0625 C-300.51 41.0625 -274.77 41.0625 -248.25 41.0625 C-248.25 36.7725 -248.25 32.4825 -248.25 28.0625 C-250.89 28.0625 -253.53 28.0625 -256.25 28.0625 C-256.25 25.4225 -256.25 22.7825 -256.25 20.0625 C-233.15 20.3925 -210.05 20.7225 -186.25 21.0625 C-186.25 17.7625 -186.25 14.4625 -186.25 11.0625 C-179.85962203 11.037856 -173.46927148 11.01966683 -167.07885742 11.00756836 C-164.90307127 11.00252692 -162.72728853 10.99569393 -160.55151367 10.98706055 C-157.43146933 10.97498662 -154.31146962 10.96926995 -151.19140625 10.96484375 C-149.72266808 10.95710182 -149.72266808 10.95710182 -148.22425842 10.94920349 C-147.32340012 10.94912796 -146.42254181 10.94905243 -145.49438477 10.94897461 C-144.29858543 10.94564369 -144.29858543 10.94564369 -143.07862854 10.94224548 C-141.25 11.0625 -141.25 11.0625 -140.25 12.0625 C-140.10806663 15.06581018 -140.20763622 18.05467134 -140.25 21.0625 C-143.55 21.0625 -146.85 21.0625 -150.25 21.0625 C-150.25 23.3725 -150.25 25.6825 -150.25 28.0625 C-149.07630859 28.04509766 -149.07630859 28.04509766 -147.87890625 28.02734375 C-146.86699219 28.01832031 -145.85507813 28.00929687 -144.8125 28 C-143.80316406 27.98839844 -142.79382813 27.97679687 -141.75390625 27.96484375 C-139.25 28.0625 -139.25 28.0625 -138.25 29.0625 C-138.25 33.0225 -138.25 36.9825 -138.25 41.0625 C-100.3 41.0625 -62.35 41.0625 -23.25 41.0625 C-23.25 27.8625 -23.25 14.6625 -23.25 1.0625 C-15.39314994 0.4077625 -7.84004016 -0.07290452 0 0 Z M10.75 15.0625 C10.75 19.6825 10.75 24.3025 10.75 29.0625 C15.55304035 27.52207252 15.55304035 27.52207252 17.75 25.0625 C18.3338196 22.1475745 18.3338196 22.1475745 17.75 19.0625 C14.77093958 15.92862729 14.77093958 15.92862729 10.75 15.0625 Z " fill="#F27E99" transform="translate(331.25,203.9375)"/>
<path d="M0 0 C34.32 0 68.64 0 104 0 C104 11.55 104 23.1 104 35 C71.99 35 39.98 35 7 35 C6.67 31.04 6.34 27.08 6 23 C2.37 22.67 -1.26 22.34 -5 22 C-5 19.69 -5 17.38 -5 15 C-1.7 15 1.6 15 5 15 C4.67 12.03 4.34 9.06 4 6 C2.68 5.67 1.36 5.34 0 5 C0 3.35 0 1.7 0 0 Z " fill="#909FE1" transform="translate(186,210)"/>
<path d="M0 0 C2.06326977 0.08760589 4.1256716 0.19579273 6.1875 0.3125 C7.91033203 0.39951172 7.91033203 0.39951172 9.66796875 0.48828125 C13.18588352 1.02854718 15.15698864 1.89864378 18 4 C19.3125 6.1875 19.3125 6.1875 20 8 C20.99 7.67 21.98 7.34 23 7 C23.3125 9.8125 23.3125 9.8125 23 13 C20.5 14.6875 20.5 14.6875 18 16 C18 16.99 18 17.98 18 19 C19.98 19.495 19.98 19.495 22 20 C22.625 22.375 22.625 22.375 23 25 C22.34 25.66 21.68 26.32 21 27 C19.68 27 18.36 27 17 27 C17 27.66 17 28.32 17 29 C19.97 29 22.94 29 26 29 C26.495 37.91 26.495 37.91 27 47 C21.06 47.495 21.06 47.495 15 48 C15 52.95 15 57.9 15 63 C15.66 63 16.32 63 17 63 C17.33 64.32 17.66 65.64 18 67 C21.3 67.33 24.6 67.66 28 68 C28 69.32 28 70.64 28 72 C22.54722326 72.50000769 17.09419904 72.99703927 11.640625 73.48828125 C8.54563767 73.7671959 5.45222603 74.05348437 2.359375 74.35546875 C-0.42589651 74.61801483 -3.20847687 74.81701313 -6 75 C-7.77310547 75.16822266 -7.77310547 75.16822266 -9.58203125 75.33984375 C-18.74799578 75.88692226 -18.74799578 75.88692226 -22.37109375 73.3203125 C-24.1553887 71.29489661 -25.60590437 69.30731651 -27 67 C-27.66 66.01 -28.32 65.02 -29 64 C-29.44921875 61.51171875 -29.44921875 61.51171875 -29.6875 58.6875 C-29.77386719 57.76324219 -29.86023438 56.83898437 -29.94921875 55.88671875 C-30.00345526 52.80358152 -29.59336001 50.02033631 -29 47 C-29.85722656 47.0928125 -30.71445313 47.185625 -31.59765625 47.28125 C-40.74239773 47.85859557 -40.74239773 47.85859557 -44.3515625 45.39453125 C-47.36018424 41.98262617 -49.75567274 38.42427472 -51 34 C-44.01762154 31.41704496 -36.93760233 31.55370011 -29.5625 31.375 C-27.60666992 31.31699219 -27.60666992 31.31699219 -25.61132812 31.2578125 C-22.40769001 31.16393299 -19.20405168 31.07824846 -16 31 C-16.66 30.34 -17.32 29.68 -18 29 C-17.625 26.375 -17.625 26.375 -17 24 C-15.68 23.67 -14.36 23.34 -13 23 C-12.67 21.35 -12.34 19.7 -12 18 C-12.639375 17.71125 -13.27875 17.4225 -13.9375 17.125 C-16 16 -16 16 -17 14 C-16.113125 13.9175 -15.22625 13.835 -14.3125 13.75 C-10.9282695 13.25034292 -10.9282695 13.25034292 -8.625 11 C-5.04295797 8.27082512 -2.44865194 8.30160352 2 8 C2.16681109 5.08347826 2.16681109 5.08347826 2 2 C1.34 1.34 0.68 0.68 0 0 Z " fill="#F2E8D6" transform="translate(228,52)"/>
<path d="M0 0 C-1.28913487 0.67154933 -2.58140204 1.33708859 -3.875 2 C-4.59429687 2.37125 -5.31359375 2.7425 -6.0546875 3.125 C-8 4 -8 4 -10 4 C-10 4.66 -10 5.32 -10 6 C-9.42121094 6.10699219 -8.84242188 6.21398437 -8.24609375 6.32421875 C-3.86486691 7.64239656 -0.98796744 10.64080563 2 14 C3.21582031 16.30883789 3.21582031 16.30883789 4.265625 18.97265625 C4.68577881 20.03282959 5.10593262 21.09300293 5.53881836 22.18530273 C6.02676593 23.45652837 6.51374695 24.72812524 7 26 C7.28706818 26.74114044 7.57413635 27.48228088 7.86990356 28.24588013 C9.88068784 33.44077337 11.84716326 38.65085318 13.78588867 43.87304688 C14.47256694 45.71376923 15.1659795 47.55199283 15.8659668 49.38769531 C16.89134686 52.07833088 17.89499392 54.77623634 18.89453125 57.4765625 C19.36316338 58.68791367 19.36316338 58.68791367 19.84126282 59.92373657 C22.44445261 67.08148218 23.44869762 74.20884334 20.375 81.375 C18.16912128 85.14560237 16.08333396 87.21818155 12 89 C6.45808256 89.98102265 1.40055667 89.72930152 -3.625 87.0625 C-9.77209431 82.40561037 -12.6750621 75.04722528 -15.91796875 68.25488281 C-16.93740622 66.13044137 -17.99028857 64.02789435 -19.0625 61.9296875 C-21.08196825 57.97248904 -23.05189524 53.99277103 -25 50 C-25.36577148 49.25057129 -25.73154297 48.50114258 -26.10839844 47.72900391 C-27.22625908 45.42732788 -28.33379515 43.12099343 -29.4375 40.8125 C-29.77982666 40.10544922 -30.12215332 39.39839844 -30.47485352 38.66992188 C-33.98125113 31.26246717 -35.13170666 24.53489435 -33 16.5 C-31.07243947 11.23974135 -27.8375359 7.79185348 -23 5 C-20.62659183 4.41158433 -18.47089065 4.19373799 -16.03125 4.09765625 C-12.17235168 3.91213229 -9.21680144 2.11707278 -5.875 0.3125 C-3 -1 -3 -1 0 0 Z " fill="#030303" transform="translate(150,112)"/>
<path d="M0 0 C0.94746094 0.00451172 1.89492188 0.00902344 2.87109375 0.01367188 C5.16413442 0.02525289 7.45702914 0.04155521 9.75 0.0625 C11.2283226 3.01914519 10.81032783 5.80479737 10.75 9.0625 C11.801875 9.124375 12.85375 9.18625 13.9375 9.25 C18.47376302 10.21674458 19.89564526 11.47416833 22.75 15.0625 C24.96789654 18.79259873 25.01873368 21.94739339 24.36328125 26.1328125 C22.989608 30.45507102 19.35606853 32.65845431 15.75 35.0625 C13.0625 35.1875 13.0625 35.1875 10.75 35.0625 C10.75 37.0425 10.75 39.0225 10.75 41.0625 C18.67 41.0625 26.59 41.0625 34.75 41.0625 C34.42 41.7225 34.09 42.3825 33.75 43.0625 C-85.05 43.0625 -203.85 43.0625 -326.25 43.0625 C-326.25 42.4025 -326.25 41.7425 -326.25 41.0625 C-226.26 41.0625 -126.27 41.0625 -23.25 41.0625 C-23.25 27.8625 -23.25 14.6625 -23.25 1.0625 C-15.39314994 0.4077625 -7.84004016 -0.07290452 0 0 Z M10.75 15.0625 C10.75 19.6825 10.75 24.3025 10.75 29.0625 C15.55304035 27.52207252 15.55304035 27.52207252 17.75 25.0625 C18.3338196 22.1475745 18.3338196 22.1475745 17.75 19.0625 C14.77093958 15.92862729 14.77093958 15.92862729 10.75 15.0625 Z " fill="#A94D67" transform="translate(331.25,203.9375)"/>
<path d="M0 0 C3.60179678 2.10936461 6.55611547 4.55010356 9.6640625 7.31640625 C10.89395841 8.39388339 12.12444135 9.47069078 13.35546875 10.546875 C14.28576904 11.36357666 14.28576904 11.36357666 15.23486328 12.19677734 C17.0342051 13.75796406 18.85531051 15.28698986 20.69140625 16.8046875 C36.68625493 30.03097985 36.68625493 30.03097985 37.33984375 35.98828125 C37.50815468 41.83487162 37.12581585 45.24833488 33.1015625 49.81640625 C29.47968331 53.08493137 26.90134386 54.55929463 22.0390625 55.25390625 C13.74604002 54.33245931 7.18086014 48.30682681 0.9140625 43.13671875 C-0.79413125 41.62014192 -0.79413125 41.62014192 -2.8984375 41.81640625 C-3.8059375 41.96078125 -4.7134375 42.10515625 -5.6484375 42.25390625 C-10.02308536 41.66501135 -11.1834222 39.72504141 -13.796875 36.34765625 C-14.16039062 35.84234375 -14.52390625 35.33703125 -14.8984375 34.81640625 C-14.5684375 34.15640625 -14.2384375 33.49640625 -13.8984375 32.81640625 C-14.9709375 32.28015625 -16.0434375 31.74390625 -17.1484375 31.19140625 C-21.01598238 28.90853493 -23.04556147 27.04096359 -24.8984375 22.81640625 C-25.69995903 16.94866372 -26.19437631 10.8916504 -22.8359375 5.75390625 C-16.71431931 -1.12008959 -8.7535717 -3.57457173 0 0 Z " fill="#040303" transform="translate(183.8984375,120.18359375)"/>
<path d="M0 0 C3.82923817 0.01043051 7.65848351 0.01483881 11.48773193 0.01983643 C18.93371652 0.03040045 26.37965812 0.04791125 33.82562256 0.06866455 C33.82562256 6.33866455 33.82562256 12.60866455 33.82562256 19.06866455 C-0.49437744 19.06866455 -34.81437744 19.06866455 -70.17437744 19.06866455 C-70.17437744 16.42866455 -70.17437744 13.78866455 -70.17437744 11.06866455 C-78.09437744 11.06866455 -86.01437744 11.06866455 -94.17437744 11.06866455 C-91.17437744 9.06866455 -91.17437744 9.06866455 -89.23687744 8.19366455 C-87.03929131 7.14854266 -87.03929131 7.14854266 -85.40216064 5.0479126 C-82.62763879 2.58292096 -81.13623456 2.48172726 -77.46734619 2.2756958 C-75.74741455 2.16644775 -75.74741455 2.16644775 -73.99273682 2.05499268 C-72.19546143 1.96894775 -72.19546143 1.96894775 -70.36187744 1.88116455 C-69.23717041 1.81219971 -68.11246338 1.74323486 -66.95367432 1.67218018 C-63.76870566 1.48462286 -60.58353508 1.32439119 -57.39651489 1.17636108 C-55.03213231 1.0617706 -52.66897581 0.93047134 -50.30548096 0.79888916 C-33.53856359 -0.08496423 -16.78375141 -0.05073934 0 0 Z " fill="#92A1E2" transform="translate(256.17437744140625,189.93133544921875)"/>
<path d="M0 0 C1.16781006 0.00523682 2.33562012 0.01047363 3.53881836 0.01586914 C4.67327393 0.0183667 5.80772949 0.02086426 6.9765625 0.0234375 C9.15560181 0.03709351 9.15560181 0.03709351 11.37866211 0.05102539 C15.97803711 0.07165039 20.57741211 0.09227539 25.31616211 0.11352539 C25.31616211 14.30352539 25.31616211 28.49352539 25.31616211 43.11352539 C21.35616211 43.11352539 17.39616211 43.11352539 13.31616211 43.11352539 C13.31616211 56.31352539 13.31616211 69.51352539 13.31616211 83.11352539 C7.70616211 83.11352539 2.09616211 83.11352539 -3.68383789 83.11352539 C-3.70638877 72.43932464 -3.7247529 61.76513959 -3.73565006 51.09092045 C-3.74087893 46.13498617 -3.74797663 41.17906898 -3.75927734 36.22314453 C-3.77010611 31.44453703 -3.7761147 26.66594601 -3.77871513 21.88732719 C-3.7805694 20.0599892 -3.78419005 18.23265215 -3.78956795 16.40532112 C-3.79677825 13.8549921 -3.79782884 11.30473202 -3.79736328 8.75439453 C-3.80095856 7.99122925 -3.80455383 7.22806396 -3.80825806 6.44177246 C-3.79576837 0.16055966 -3.79576837 0.16055966 0 0 Z " fill="#94A2E1" transform="translate(294.683837890625,161.886474609375)"/>
<path d="M0 0 C9.68327568 2.23460208 16.78405342 9.91933664 22 18 C27.20366671 27.45281467 27.20366671 27.45281467 26 32 C21.98491352 35.07081184 18.02626533 35.67933185 13.125 36.125 C12.34253906 36.20282715 11.56007812 36.2806543 10.75390625 36.36083984 C-8.12396621 38.12233146 -27.05742693 38.14868582 -46 38 C-45.67 37.01 -45.34 36.02 -45 35 C-44.48276765 28.57438269 -44.65312954 24.52961207 -48 19 C-48.02009948 15.18779792 -47.71653337 11.43306674 -46 8 C-43.2303041 7.27113266 -40.87137415 7 -38 7 C-35.8359375 8.57421875 -35.8359375 8.57421875 -33.375 10.6875 C-25.20130923 17.3858848 -25.20130923 17.3858848 -15.3125 20.5 C-10.23350069 19.73335859 -7.14081793 18.2641496 -3.6875 14.4375 C-1.34256587 11.05037292 -0.80297693 8.94745727 -0.4375 4.875 C-0.35371094 3.96492187 -0.26992187 3.05484375 -0.18359375 2.1171875 C-0.09271484 1.06917969 -0.09271484 1.06917969 0 0 Z " fill="#F26A8D" transform="translate(221,154)"/>
<path d="M0 0 C4.52777408 1.59599699 8.34844247 3.94009535 12.375 6.5 C13.06601807 6.93634766 13.75703613 7.37269531 14.46899414 7.82226562 C19.48637536 11.00515794 24.47552209 14.2314434 29.4375 17.5 C30.40405518 18.13131836 30.40405518 18.13131836 31.39013672 18.77539062 C35.88219413 21.76438826 35.88219413 21.76438826 37 24 C30.73 24.33 24.46 24.66 18 25 C17.67 33.91 17.34 42.82 17 52 C1.16 52 -14.68 52 -31 52 C-29.35 50.68 -27.7 49.36 -26 48 C-20.81722158 42.24633238 -16.82167065 35.70542212 -13 29 C-10.0280615 30.12451727 -7.66559313 31.22293791 -5 33 C-8.32086771 30.22999175 -8.32086771 30.22999175 -12 28 C-10.94039042 24.24320238 -9.51594746 21.04131039 -7.5625 17.6875 C-5.39103187 13.90659078 -3.91482827 10.21620075 -2.67578125 6.04296875 C-1.96843165 3.90456504 -1.0505524 1.9893439 0 0 Z " fill="#F1E8D7" transform="translate(273,137)"/>
<path d="M0 0 C3.44428265 1.44781793 5.36130962 3.27694609 7.75 6.125 C8.36359375 6.84945312 8.9771875 7.57390625 9.609375 8.3203125 C10.29773438 9.15175781 10.29773438 9.15175781 11 10 C7.84730248 15.16692093 4.0625508 19.21090126 -0.25 23.4375 C-0.92530762 24.10563721 -1.60061523 24.77377441 -2.29638672 25.4621582 C-6.06511201 29.16951101 -9.87476284 32.78609873 -13.9140625 36.19921875 C-16.84295123 38.72771633 -19.66519075 41.36696082 -22.5 44 C-26.71318194 47.90539982 -30.93430454 51.79190389 -35.296875 55.53125 C-36.43086581 56.50918703 -37.54592106 57.50952632 -38.640625 58.53125 C-40.84273523 60.53316839 -42.43020081 61.90287514 -45.40625 62.41015625 C-48.99946329 61.84195234 -50.03830385 60.27529022 -52.3125 57.5 C-53.35857422 56.24703125 -53.35857422 56.24703125 -54.42578125 54.96875 C-54.94527344 54.3190625 -55.46476562 53.669375 -56 53 C-54.59321194 49.77451847 -52.93721445 47.74383125 -50.3671875 45.35546875 C-49.64273438 44.67806641 -48.91828125 44.00066406 -48.171875 43.30273438 C-47.03492188 42.25569336 -47.03492188 42.25569336 -45.875 41.1875 C-45.14023437 40.50107422 -44.40546875 39.81464844 -43.6484375 39.10742188 C-39.45424403 35.20490208 -35.19028989 31.39514451 -30.86669922 27.63696289 C-28.07066885 25.18504246 -25.34663503 22.65884776 -22.625 20.125 C-7.57225894 6.17736913 -7.57225894 6.17736913 0 0 Z " fill="#F0E9CB" transform="translate(68,183)"/>
<path d="M0 0 C6.39037797 -0.024644 12.78072852 -0.04283317 19.17114258 -0.05493164 C21.34692873 -0.05997308 23.52271147 -0.06680607 25.69848633 -0.07543945 C28.81853067 -0.08751338 31.93853038 -0.09323005 35.05859375 -0.09765625 C36.03775253 -0.10281754 37.01691132 -0.10797882 38.02574158 -0.11329651 C38.92659988 -0.11337204 39.82745819 -0.11344757 40.75561523 -0.11352539 C41.95141457 -0.11685631 41.95141457 -0.11685631 43.17137146 -0.12025452 C45 0 45 0 46 1 C46.14193337 4.00331018 46.04236378 6.99217134 46 10 C42.7 10 39.4 10 36 10 C36 12.31 36 14.62 36 17 C1.02 17 -33.96 17 -70 17 C-70 14.36 -70 11.72 -70 9 C-46.9 9.33 -23.8 9.66 0 10 C0 6.7 0 3.4 0 0 Z " fill="#FCC63B" transform="translate(145,215)"/>
<path d="M0 0 C1.0463326 5.31013795 1.28612758 10.54586896 1.5 15.9375 C1.87682061 24.63634677 2.37301624 33.31560789 3 42 C4.65 42 6.3 42 8 42 C8 42.33 8 42.66 8 43 C-4.2368111 44.22198391 -4.2368111 44.22198391 -8.41796875 41.32421875 C-10.16022891 39.29220103 -11.61704565 37.28887698 -13 35 C-13.66 34.01 -14.32 33.02 -15 32 C-15.44921875 29.51171875 -15.44921875 29.51171875 -15.6875 26.6875 C-15.77386719 25.76324219 -15.86023438 24.83898437 -15.94921875 23.88671875 C-16.00345526 20.80358152 -15.59336001 18.02033631 -15 15 C-15.85722656 15.0928125 -16.71445313 15.185625 -17.59765625 15.28125 C-26.74239773 15.85859557 -26.74239773 15.85859557 -30.3515625 13.39453125 C-33.36018424 9.98262617 -35.75567274 6.42427472 -37 2 C-31.01165403 -0.03487484 -25.36006222 -0.45362699 -19.0625 -0.6875 C-18.11181641 -0.73455078 -17.16113281 -0.78160156 -16.18164062 -0.83007812 C-10.64342787 -1.06290444 -5.47688658 -0.86000698 0 0 Z " fill="#F2E7D6" transform="translate(214,84)"/>
<path d="M0 0 C2.06326977 0.08760589 4.1256716 0.19579273 6.1875 0.3125 C7.91033203 0.39951172 7.91033203 0.39951172 9.66796875 0.48828125 C13.18588352 1.02854718 15.15698864 1.89864378 18 4 C19.3125 6.1875 19.3125 6.1875 20 8 C20.99 7.67 21.98 7.34 23 7 C23.3125 9.8125 23.3125 9.8125 23 13 C20.5 14.6875 20.5 14.6875 18 16 C18 16.99 18 17.98 18 19 C19.32 19.33 20.64 19.66 22 20 C22.625 22.375 22.625 22.375 23 25 C22.34 25.66 21.68 26.32 21 27 C19.68 27 18.36 27 17 27 C17 27.99 17 28.98 17 30 C9.49901103 31.00491718 1.9935478 31.13860145 -5.5625 31.1875 C-6.55072754 31.20039062 -7.53895508 31.21328125 -8.55712891 31.2265625 C-9.48831543 31.22785156 -10.41950195 31.22914062 -11.37890625 31.23046875 C-12.2201001 31.23457764 -13.06129395 31.23868652 -13.92797852 31.24291992 C-16 31 -16 31 -18 29 C-17.625 26.375 -17.625 26.375 -17 24 C-15.68 23.67 -14.36 23.34 -13 23 C-12.67 21.35 -12.34 19.7 -12 18 C-12.639375 17.71125 -13.27875 17.4225 -13.9375 17.125 C-16 16 -16 16 -17 14 C-16.113125 13.9175 -15.22625 13.835 -14.3125 13.75 C-10.9282695 13.25034292 -10.9282695 13.25034292 -8.625 11 C-5.04295797 8.27082512 -2.44865194 8.30160352 2 8 C2.16681109 5.08347826 2.16681109 5.08347826 2 2 C1.34 1.34 0.68 0.68 0 0 Z " fill="#AF5346" transform="translate(228,52)"/>
<path d="M0 0 C3.06665155 1.15960019 5.80640432 2.37199367 8.5234375 4.20703125 C9.1525 4.62919922 9.7815625 5.05136719 10.4296875 5.48632812 C11.07164062 5.92396484 11.71359375 6.36160156 12.375 6.8125 C13.00921875 7.23853516 13.6434375 7.66457031 14.296875 8.10351562 C16.2058924 9.39112838 18.10503527 10.69180346 20 12 C20.67192383 12.46325684 21.34384766 12.92651367 22.03613281 13.40380859 C23.71015856 14.57528962 25.3578212 15.78427849 27 17 C27 17.33 27 17.66 27 18 C20.73 18.33 14.46 18.66 8 19 C7.67 27.91 7.34 36.82 7 46 C-8.84 46 -24.68 46 -41 46 C-39.35 44.68 -37.7 43.36 -36 42 C-35.4028418 41.1025708 -34.80568359 40.2051416 -34.19042969 39.28051758 C-32 37 -32 37 -28.33300781 36.43237305 C-26.87280754 36.43316036 -25.41245008 36.46116419 -23.953125 36.51171875 C-23.18192322 36.51879349 -22.41072144 36.52586823 -21.6161499 36.53315735 C-19.15976788 36.56108422 -16.70568949 36.62381261 -14.25 36.6875 C-12.58206424 36.71258539 -10.91409264 36.73539815 -9.24609375 36.75585938 C-5.16317873 36.81090438 -1.08197951 36.89715943 3 37 C2.78561279 36.2874707 2.57122559 35.57494141 2.3503418 34.84082031 C0.16611678 26.99414295 -0.37433362 19.86528601 -0.1875 11.75 C-0.17396484 10.61175781 -0.16042969 9.47351563 -0.14648438 8.30078125 C-0.11160054 5.53333013 -0.06259317 2.76693895 0 0 Z " fill="#687CD5" transform="translate(283,143)"/>
<path d="M0 0 C0.91644287 0.00523682 1.83288574 0.01047363 2.77709961 0.01586914 C3.76645508 0.0190918 4.75581055 0.02231445 5.77514648 0.02563477 C6.81606445 0.03401367 7.85698242 0.04239258 8.92944336 0.05102539 C10.49662109 0.05779297 10.49662109 0.05779297 12.09545898 0.06469727 C14.68600996 0.07652627 17.27644895 0.0930085 19.86694336 0.11352539 C19.86694336 0.44352539 19.86694336 0.77352539 19.86694336 1.11352539 C9.47194336 1.60852539 9.47194336 1.60852539 -1.13305664 2.11352539 C-1.46305664 29.17352539 -1.79305664 56.23352539 -2.13305664 84.11352539 C-2.46305664 84.11352539 -2.79305664 84.11352539 -3.13305664 84.11352539 C-3.13305664 72.56352539 -3.13305664 61.01352539 -3.13305664 49.11352539 C-37.45305664 49.11352539 -71.77305664 49.11352539 -107.13305664 49.11352539 C-107.13305664 50.43352539 -107.13305664 51.75352539 -107.13305664 53.11352539 C-118.02305664 53.11352539 -128.91305664 53.11352539 -140.13305664 53.11352539 C-140.13305664 49.15352539 -140.13305664 45.19352539 -140.13305664 41.11352539 C-129.24305664 41.11352539 -118.35305664 41.11352539 -107.13305664 41.11352539 C-107.13305664 43.42352539 -107.13305664 45.73352539 -107.13305664 48.11352539 C-72.81305664 48.11352539 -38.49305664 48.11352539 -3.13305664 48.11352539 C-3.13305664 41.84352539 -3.13305664 35.57352539 -3.13305664 29.11352539 C-20.62305664 29.11352539 -38.11305664 29.11352539 -56.13305664 29.11352539 C-56.13305664 28.78352539 -56.13305664 28.45352539 -56.13305664 28.11352539 C-38.64305664 28.11352539 -21.15305664 28.11352539 -3.13305664 28.11352539 C-3.17265065 19.27279676 -3.17265065 19.27279676 -3.22314453 10.43212891 C-3.22689087 8.79135376 -3.22689087 8.79135376 -3.23071289 7.11743164 C-3.23594971 5.99151611 -3.24118652 4.86560059 -3.24658203 3.70556641 C-3.09149307 0.16453523 -3.09149307 0.16453523 0 0 Z " fill="#EAE7E7" transform="translate(293.133056640625,160.886474609375)"/>
<path d="M0 0 C4.66270604 1.2716471 7.1323224 3.93270443 10.359375 7.328125 C12.01881915 9.11041719 12.01881915 9.11041719 14.3125 10.6875 C16 12 16 12 16.8984375 13.8984375 C18.10754815 16.20518051 19.2917226 17.31998195 21.3125 18.9375 C24.39107221 21.47652862 27.21011242 24.14036523 30 27 C30.61488281 27.60457031 31.22976562 28.20914063 31.86328125 28.83203125 C32.50652344 29.46496094 33.14976562 30.09789062 33.8125 30.75 C34.41707031 31.34296875 35.02164063 31.9359375 35.64453125 32.546875 C37 34 37 34 37 35 C27.1 35 17.2 35 7 35 C6.67 31.04 6.34 27.08 6 23 C2.37 22.67 -1.26 22.34 -5 22 C-5 19.69 -5 17.38 -5 15 C-1.7 15 1.6 15 5 15 C4.67 12.03 4.34 9.06 4 6 C2.68 5.67 1.36 5.34 0 5 C0 3.35 0 1.7 0 0 Z " fill="#677BD5" transform="translate(186,210)"/>
<path d="M0 0 C2.12472576 -0.05386629 4.24983652 -0.09273071 6.375 -0.125 C7.55835938 -0.14820312 8.74171875 -0.17140625 9.9609375 -0.1953125 C13 0 13 0 15 2 C15 2.99 15 3.98 15 5 C15.70898438 5.24621094 16.41796875 5.49242188 17.1484375 5.74609375 C20.35871615 7.15773683 22.83401668 8.94427437 25.625 11.0625 C29.53776003 14.04745648 29.53776003 14.04745648 34 16 C32.36490363 20.5004837 30.03401167 23.96262025 27.2421875 27.81640625 C25.67035767 30.16076684 25.67035767 30.16076684 26 34 C24.515 33.505 24.515 33.505 23 33 C23.07863281 32.24203125 23.15726562 31.4840625 23.23828125 30.703125 C23.26711418 27.9432425 23.26711418 27.9432425 21.41796875 26.234375 C15.32568792 22.17996744 10.29332588 21.02726477 3 21 C2.67 19.35 2.34 17.7 2 16 C1.34 16 0.68 16 0 16 C-0.19672365 14.27185839 -0.38196799 12.54240803 -0.5625 10.8125 C-0.71912109 9.36810547 -0.71912109 9.36810547 -0.87890625 7.89453125 C-0.99758751 5.05766623 -0.67765639 2.74576329 0 0 Z " fill="#C65C4D" transform="translate(243,99)"/>
<path d="M0 0 C18.81 0 37.62 0 57 0 C57 3.3 57 6.6 57 10 C38.19 10 19.38 10 0 10 C0 6.7 0 3.4 0 0 Z " fill="#E9DABC" transform="translate(88,215)"/>
<path d="M0 0 C2.91222742 2.79599661 5.42794647 5.67944686 7.8125 8.9375 C8.75029297 10.18853516 8.75029297 10.18853516 9.70703125 11.46484375 C11.30843799 14.6047621 10.92648678 15.66666168 10 19 C9.55444316 24.83606421 9.18417894 30.13992798 11.5625 35.5625 C14.51318004 38.51318004 17.27398473 40.13699236 21 42 C21 42.99 21 43.98 21 45 C22.0209375 45.9590625 22.0209375 45.9590625 23.0625 46.9375 C25.75509251 51.19353332 24.85068564 54.22096425 24.06640625 59.0625 C23.98516057 62.65642637 25.12563958 64.0019676 27 67 C27.328125 69.82421875 27.328125 69.82421875 27.25 72.6875 C27.23453125 73.64011719 27.2190625 74.59273438 27.203125 75.57421875 C27 78 27 78 26 80 C28.64 80 31.28 80 34 80 C32 82 32 82 29.8359375 82.1953125 C29.02382812 82.17210937 28.21171875 82.14890625 27.375 82.125 C26.55773437 82.10695313 25.74046875 82.08890625 24.8984375 82.0703125 C24.27195313 82.04710937 23.64546875 82.02390625 23 82 C22.505 83.485 22.505 83.485 22 85 C20.37667033 86.38576923 18.71275535 87.72641268 17 89 C16.34 88.67 15.68 88.34 15 88 C15.928125 86.9171875 15.928125 86.9171875 16.875 85.8125 C21.23109798 80.0470762 21.58778185 75.05743641 21 68 C20.17426231 64.46816911 18.96336186 61.13736356 17.67578125 57.75 C17.3325029 56.81124023 16.98922455 55.87248047 16.63554382 54.90527344 C15.91082403 52.93275482 15.17842624 50.96304169 14.4387207 48.99609375 C13.31770315 46.01384198 12.22037316 43.02371625 11.12695312 40.03125 C10.41543497 38.1036595 9.70258749 36.17655906 8.98828125 34.25 C8.66410721 33.37053711 8.33993317 32.49107422 8.00593567 31.58496094 C3.03164866 17.97964805 3.03164866 17.97964805 -7 8 C-7.99 7.67 -8.98 7.34 -10 7 C-10 6.34 -10 5.68 -10 5 C-6.7 3.35 -3.4 1.7 0 0 Z " fill="#E0D0B4" transform="translate(150,111)"/>
<path d="M0 0 C2.89227822 1.95654115 5.48169843 4.15464864 8.125 6.4375 C0.79166667 13.77083333 -6.54166667 21.10416667 -13.875 28.4375 C-13.215 30.4175 -12.555 32.3975 -11.875 34.4375 C-14.5 34.875 -14.5 34.875 -17.875 34.4375 C-20.20622122 32.3425512 -22.04828621 29.97676173 -23.875 27.4375 C-23.545 26.7775 -23.215 26.1175 -22.875 25.4375 C-24.195 24.7775 -25.515 24.1175 -26.875 23.4375 C-24.6117841 19.16253663 -21.74896421 15.3732385 -17.875 12.4375 C-16.885 12.4375 -15.895 12.4375 -14.875 12.4375 C-14.61460937 11.85226563 -14.35421875 11.26703125 -14.0859375 10.6640625 C-12.79849225 8.29682446 -11.40935473 6.70517914 -9.5 4.8125 C-8.91476563 4.22210938 -8.32953125 3.63171875 -7.7265625 3.0234375 C-3.1081266 -0.93243798 -3.1081266 -0.93243798 0 0 Z " fill="#060606" transform="translate(192.875,127.5625)"/>
<path d="M0 0 C6.39037797 -0.024644 12.78072852 -0.04283317 19.17114258 -0.05493164 C21.34692873 -0.05997308 23.52271147 -0.06680607 25.69848633 -0.07543945 C28.81853067 -0.08751338 31.93853038 -0.09323005 35.05859375 -0.09765625 C36.52733192 -0.10539818 36.52733192 -0.10539818 38.02574158 -0.11329651 C39.37702904 -0.11340981 39.37702904 -0.11340981 40.75561523 -0.11352539 C41.95141457 -0.11685631 41.95141457 -0.11685631 43.17137146 -0.12025452 C45 0 45 0 46 1 C46 3.97 46 6.94 46 10 C30.82 10 15.64 10 0 10 C0 6.7 0 3.4 0 0 Z " fill="#F27888" transform="translate(145,215)"/>
<path d="M0 0 C2.06326977 0.08760589 4.1256716 0.19579273 6.1875 0.3125 C7.91033203 0.39951172 7.91033203 0.39951172 9.66796875 0.48828125 C13.18588352 1.02854718 15.15698864 1.89864378 18 4 C19.3125 6.1875 19.3125 6.1875 20 8 C20.99 7.67 21.98 7.34 23 7 C23.3125 9.8125 23.3125 9.8125 23 13 C21.36368108 14.04892238 19.69514137 15.04906703 18 16 C17.11341534 18.59122743 17.11341534 18.59122743 17 21 C15.68 21.33 14.36 21.66 13 22 C11.68 20.02 10.36 18.04 9 16 C8.67 16.66 8.34 17.32 8 18 C4.39610336 18.11601004 0.79268533 18.18718408 -2.8125 18.25 C-3.83666016 18.28351563 -4.86082031 18.31703125 -5.91601562 18.3515625 C-6.89892578 18.36445312 -7.88183594 18.37734375 -8.89453125 18.390625 C-10.25348511 18.4220459 -10.25348511 18.4220459 -11.63989258 18.45410156 C-14 18 -14 18 -15.8190918 15.97558594 C-16.2087915 15.32364258 -16.59849121 14.67169922 -17 14 C-16.113125 13.9175 -15.22625 13.835 -14.3125 13.75 C-10.9282695 13.25034292 -10.9282695 13.25034292 -8.625 11 C-5.04295797 8.27082512 -2.44865194 8.30160352 2 8 C2.16681109 5.08347826 2.16681109 5.08347826 2 2 C1.34 1.34 0.68 0.68 0 0 Z " fill="#D1DF3B" transform="translate(228,52)"/>
<path d="M0 0 C2.84390352 2.84390352 3.91119869 4.57511288 5.5234375 8.1484375 C6.21953125 9.65664062 6.21953125 9.65664062 6.9296875 11.1953125 C7.88894969 13.30568931 8.84471322 15.41766012 9.796875 17.53125 C13.45128169 25.42557606 17.15654045 29.52523236 24 35 C16.08 35 8.16 35 0 35 C0 23.45 0 11.9 0 0 Z " fill="#A1ADE3" transform="translate(127,166)"/>
<path d="M0 0 C0 0.99 0 1.98 0 3 C-2.484375 4.68359375 -2.484375 4.68359375 -5.75 6.4375 C-12.96710375 10.24831095 -12.96710375 10.24831095 -17 17 C-18.98723268 17.70381157 -20.98777953 18.3711811 -23 19 C-23.33 19.66 -23.66 20.32 -24 21 C-34 8.42465753 -34 8.42465753 -34 5 C-32.68 5 -31.36 5 -30 5 C-30.66 4.01 -31.32 3.02 -32 2 C-27.79196298 1.66285491 -23.58352782 1.33095755 -19.375 1 C-18.18519531 0.90460938 -16.99539062 0.80921875 -15.76953125 0.7109375 C-14.61582031 0.62070313 -13.46210938 0.53046875 -12.2734375 0.4375 C-10.68668213 0.31181641 -10.68668213 0.31181641 -9.06787109 0.18359375 C-6.03692697 0.00220986 -3.03554529 -0.03182747 0 0 Z " fill="#FBB425" transform="translate(240,125)"/>
<path d="M0 0 C3.50611982 0.85515118 5.6559841 2.28587633 8 5 C6.1784011 8.92344379 4.50400333 12.13298631 0.67578125 14.33984375 C-2.185707 16.11521967 -4.18951903 18.05935109 -6.5 20.5 C-9.4610735 23.62789455 -12.217641 25.92236618 -16 28 C-17.98 26.35 -19.96 24.7 -22 23 C-20.59210151 19.80814477 -18.91400725 17.66754873 -16.4453125 15.21484375 C-15.39923828 14.17166992 -15.39923828 14.17166992 -14.33203125 13.10742188 C-13.60371094 12.39134766 -12.87539062 11.67527344 -12.125 10.9375 C-11.04412109 9.85758789 -11.04412109 9.85758789 -9.94140625 8.75585938 C-3.15042153 2.02115353 -3.15042153 2.02115353 0 0 Z " fill="#010101" transform="translate(200,135)"/>
<path d="M0 0 C2.7652393 1.21670529 5.25053897 2.75429298 7.75 4.4375 C8.36359375 4.84871094 8.9771875 5.25992188 9.609375 5.68359375 C10.06828125 6.11800781 10.5271875 6.55242187 11 7 C11 7.99 11 8.98 11 10 C9.35 10 7.7 10 6 10 C6.33 10.66 6.66 11.32 7 12 C7.05689044 18.32621696 6.21487887 23.08264132 2 28 C-0.75 30.375 -0.75 30.375 -3 32 C-3.66 31.67 -4.32 31.34 -5 31 C-4.67 30.34 -4.34 29.68 -4 29 C-3.46280421 22.58464254 -3.66142237 18.51591086 -7 13 C-7.02009948 9.18779792 -6.71653337 5.43306674 -5 2 C-2.4375 1.375 -2.4375 1.375 0 1 C0 0.67 0 0.34 0 0 Z " fill="#C75E52" transform="translate(180,160)"/>
<path d="M0 0 C2.31 0 4.62 0 7 0 C7.92273836 13.34675129 8.12242557 26.62359426 8 40 C5.36 40 2.72 40 0 40 C0 26.8 0 13.6 0 0 Z " fill="#EE4160" transform="translate(308,205)"/>
<path d="M0 0 C7.92 0 15.84 0 24 0 C24 3.96 24 7.92 24 12 C16.08 12 8.16 12 0 12 C0 8.04 0 4.08 0 0 Z " fill="#EFE3D6" transform="translate(169,233)"/>
<path d="M0 0 C3.3 0 6.6 0 10 0 C8.68 0.33 7.36 0.66 6 1 C6.09087891 2.13018555 6.18175781 3.26037109 6.27539062 4.42480469 C6.61243775 8.62161784 6.94740119 12.81859516 7.28173828 17.015625 C7.42667808 18.83142564 7.57218144 20.64718138 7.71826172 22.46289062 C7.92824429 25.0741024 8.13619364 27.68546939 8.34375 30.296875 C8.40937134 31.10743347 8.47499268 31.91799194 8.54260254 32.75311279 C8.81364386 36.1849395 9 39.55496503 9 43 C7.02 43 5.04 43 3 43 C0.50799542 28.77379908 0.37098251 14.40648766 0 0 Z " fill="#B1AEDA" transform="translate(214,83)"/>
<path d="M0 0 C36.36320475 0.2421365 36.36320475 0.2421365 48 8 C32.16 8 16.32 8 0 8 C0 5.36 0 2.72 0 0 Z " fill="#FBB427" transform="translate(75,224)"/>
<path d="M0 0 C0.99 0.66 1.98 1.32 3 2 C2.319375 2.350625 1.63875 2.70125 0.9375 3.0625 C-2.18923402 5.12481393 -4.50339772 7.41793194 -7.1015625 10.08984375 C-15.0609424 18.09835562 -15.0609424 18.09835562 -19.17578125 20.01171875 C-21.35406276 20.92301278 -21.35406276 20.92301278 -22 24 C-22.8599086 11.29246183 -22.8599086 11.29246183 -19.9375 6.9375 C-14.36936164 0.68500944 -8.31560505 -1.25024831 0 0 Z " fill="#0D090A" transform="translate(181,119)"/>
<path d="M0 0 C2.91222742 2.79599661 5.42794647 5.67944686 7.8125 8.9375 C8.75029297 10.18853516 8.75029297 10.18853516 9.70703125 11.46484375 C11.31501016 14.61764831 10.89424448 15.64161517 10 19 C9.93298494 21.43666765 9.91471979 23.87501742 9.9375 26.3125 C9.94652344 27.56675781 9.95554688 28.82101563 9.96484375 30.11328125 C9.97644531 31.06589844 9.98804688 32.01851562 10 33 C9.34 33 8.68 33 8 33 C7.63648438 31.92621094 7.27296875 30.85242188 6.8984375 29.74609375 C2.52213549 16.8785218 2.52213549 16.8785218 -7.375 8.0625 C-8.24125 7.711875 -9.1075 7.36125 -10 7 C-10 6.34 -10 5.68 -10 5 C-6.7 3.35 -3.4 1.7 0 0 Z " fill="#F2C142" transform="translate(150,111)"/>
<path d="M0 0 C7.19969119 -0.37893112 12.1050656 0.55538873 17.8125 5.375 C21.55749163 9.86898995 22.25216357 13.52655745 22.125 19.3125 C22.10695313 20.38113281 22.08890625 21.44976562 22.0703125 22.55078125 C22.04710937 23.35902344 22.02390625 24.16726562 22 25 C17.21628231 21.41221173 13.76295809 17.3591082 10.1015625 12.64453125 C7.3654764 9.20153815 4.43453492 5.96009687 1.46875 2.71484375 C0 1 0 1 0 0 Z " fill="#92A1DF" transform="translate(288,87)"/>
<path d="M0 0 C2.5 1.3125 2.5 1.3125 5 3 C5 7.26173372 2.51054098 9.21842065 -0.1875 12.25 C-1.19991066 13.41363272 -2.21035144 14.57898245 -3.21875 15.74609375 C-3.70214844 16.30538574 -4.18554688 16.86467773 -4.68359375 17.44091797 C-6.98646463 20.1683166 -9.0058306 23.04312814 -11 26 C-13 25 -15 24 -17 23 C-15.47339258 18.00296826 -12.46842537 14.75651026 -9.0625 10.9375 C-7.98982707 9.71837831 -6.91818251 8.49835089 -5.84765625 7.27734375 C-5.35023926 6.71128418 -4.85282227 6.14522461 -4.34033203 5.56201172 C-2.80317776 3.77062501 -1.37372463 1.91938528 0 0 Z " fill="#F1E9D2" transform="translate(94,182)"/>
<path d="M0 0 C1.65 0 3.3 0 5 0 C5 0.99 5 1.98 5 3 C6.79158489 3.02696365 8.58328473 3.04637917 10.375 3.0625 C11.87160156 3.07990234 11.87160156 3.07990234 13.3984375 3.09765625 C15.98432453 3.18006602 15.98432453 3.18006602 18 2 C18.495 8.93 18.495 8.93 19 16 C11.575 15.01 11.575 15.01 4 14 C3.67 12.35 3.34 10.7 3 9 C2.34 9 1.68 9 1 9 C0.67 6.03 0.34 3.06 0 0 Z " fill="#25110F" transform="translate(242,106)"/>
<path d="M0 0 C0.99 0.66 1.98 1.32 3 2 C3.92576761 7.49622391 3.87587279 13.24211071 1.125 18.1875 C-1 21 -1 21 -3 22 C1.29 22.33 5.58 22.66 10 23 C10 23.33 10 23.66 10 24 C2.08 24 -5.84 24 -14 24 C-12.35 22.35 -10.7 20.7 -9 19 C-5.05891302 14.07364128 -5 8.10554139 -5 2 C-3.35 2 -1.7 2 0 2 C0 1.34 0 0.68 0 0 Z " fill="#F07D9D" transform="translate(191,168)"/>
<path d="M0 0 C1.25554687 0.04898438 2.51109375 0.09796875 3.8046875 0.1484375 C4.79577515 0.1784082 4.79577515 0.1784082 5.80688477 0.20898438 C11.11743832 0.39996042 16.41159777 0.82928921 21.6796875 1.5234375 C22.3396875 3.1734375 22.9996875 4.8234375 23.6796875 6.5234375 C18.89647072 5.59336757 18.89647072 5.59336757 16.7421875 4.8984375 C13.90225289 4.38208575 11.48360053 4.94990983 8.6796875 5.5234375 C8.6796875 6.5134375 8.6796875 7.5034375 8.6796875 8.5234375 C5.90244825 9.31032195 3.45358673 9.64293674 0.5703125 9.62109375 C-0.18378906 9.61787109 -0.93789062 9.61464844 -1.71484375 9.61132812 C-2.49214844 9.60294922 -3.26945313 9.59457031 -4.0703125 9.5859375 C-4.86308594 9.58142578 -5.65585938 9.57691406 -6.47265625 9.57226562 C-8.42190758 9.56052315 -10.37111988 9.54258896 -12.3203125 9.5234375 C-11.5778125 8.9665625 -10.8353125 8.4096875 -10.0703125 7.8359375 C-7.23713484 5.66305392 -7.23713484 5.66305392 -5.453125 2.796875 C-3.3203125 0.5234375 -3.3203125 0.5234375 0 0 Z " fill="#6A7DD5" transform="translate(254.3203125,179.4765625)"/>
<path d="M0 0 C0.87462891 0.00902344 1.74925781 0.01804687 2.65039062 0.02734375 C4.78788064 0.0507043 6.92522786 0.08656753 9.0625 0.125 C9.0625 0.455 9.0625 0.785 9.0625 1.125 C4.4425 1.125 -0.1775 1.125 -4.9375 1.125 C-3.9475 2.89875 -2.9575 4.6725 -1.9375 6.5 C1.0625 11.875 1.0625 11.875 1.0625 14.125 C2.0525 14.455 3.0425 14.785 4.0625 15.125 C-6.20902134 16.33936706 -6.20902134 16.33936706 -10.22265625 13.51953125 C-13.24931154 10.09446273 -15.68604288 6.57462532 -16.9375 2.125 C-11.16593962 0.13588693 -6.07507259 -0.1201155 0 0 Z " fill="#EAD9B8" transform="translate(193.9375,83.875)"/>
<path d="M0 0 C5.93806675 1.3703231 10.72595592 4.73495391 15 9 C15.76171875 11.2265625 15.76171875 11.2265625 16 13 C9.53991163 14.95021536 3.7281627 15.22262303 -3 15 C-2.68289062 14.28457031 -2.36578125 13.56914062 -2.0390625 12.83203125 C-1.00494422 10.01347579 -0.61344603 7.66807542 -0.375 4.6875 C-0.30023438 3.80449219 -0.22546875 2.92148438 -0.1484375 2.01171875 C-0.09945312 1.34785156 -0.05046875 0.68398437 0 0 Z " fill="#EB425E" transform="translate(221,154)"/>
<path d="M0 0 C1.68272986 0.62501395 3.34630643 1.30177383 5 2 C5.8765625 2.3609375 6.753125 2.721875 7.65625 3.09375 C10 5 10 5 10.48828125 8.57421875 C10.45514248 9.94616376 10.39563595 11.3176753 10.3125 12.6875 C10.27866211 13.7403418 10.27866211 13.7403418 10.24414062 14.81445312 C10.18531647 16.5438833 10.09563389 18.27221438 10 20 C9.01 20.33 8.02 20.66 7 21 C6.43732422 20.04287109 6.43732422 20.04287109 5.86328125 19.06640625 C5.35152344 18.24011719 4.83976562 17.41382813 4.3125 16.5625 C3.81363281 15.73878906 3.31476563 14.91507813 2.80078125 14.06640625 C0.61900552 11.56280677 -0.75480334 11.30406442 -4 11 C-3.5247412 9.35303396 -3.04468109 7.70745272 -2.5625 6.0625 C-2.29566406 5.14597656 -2.02882813 4.22945312 -1.75390625 3.28515625 C-1 1 -1 1 0 0 Z " fill="#E3D4B5" transform="translate(273,137)"/>
<path d="M0 0 C11.88 0 23.76 0 36 0 C36 2.31 36 4.62 36 7 C31.83637965 6.47467269 27.67387975 5.94136835 23.51220703 5.40087891 C22.09842146 5.21838203 20.68435994 5.03800915 19.27001953 4.85986328 C17.22871617 4.60236272 15.18855084 4.33705833 13.1484375 4.0703125 C11.92302246 3.91320801 10.69760742 3.75610352 9.43505859 3.59423828 C6.12716457 3.02199848 3.14829216 2.15058067 0 1 C0 0.67 0 0.34 0 0 Z " fill="#F1E7D2" transform="translate(109,215)"/>
<path d="M0 0 C1.06732724 2.05841682 2.03205063 4.0844439 2.85546875 6.25390625 C4.16810646 9.40334076 5.74204768 12.28933917 7.4375 15.25 C8.03433594 16.30703125 8.63117188 17.3640625 9.24609375 18.453125 C10.80997906 21.27109272 10.80997906 21.27109272 14 22 C14.6875 24.0625 14.6875 24.0625 15 26 C17.64 26 20.28 26 23 26 C23 26.33 23 26.66 23 27 C10.7631889 28.22198391 10.7631889 28.22198391 6.58203125 25.32421875 C4.83977109 23.29220103 3.38295435 21.28887698 2 19 C1.34 18.01 0.68 17.02 0 16 C-0.44921875 13.4765625 -0.44921875 13.4765625 -0.6875 10.625 C-0.77386719 9.68914062 -0.86023438 8.75328125 -0.94921875 7.7890625 C-0.99955916 5.02421231 -0.64806108 2.67995185 0 0 Z " fill="#E8D6B9" transform="translate(199,100)"/>
<path d="M0 0 C0.99 0.33 1.98 0.66 3 1 C1.88321917 2.6721852 0.75633648 4.33762803 -0.375 6 C-1.00148438 6.928125 -1.62796875 7.85625 -2.2734375 8.8125 C-2.84320313 9.534375 -3.41296875 10.25625 -4 11 C-4.66 11 -5.32 11 -6 11 C-6.27634277 11.57073242 -6.55268555 12.14146484 -6.83740234 12.72949219 C-7.9999153 14.99983457 -9.26668974 17.15507631 -10.6015625 19.328125 C-11.09140625 20.12734375 -11.58125 20.9265625 -12.0859375 21.75 C-12.84777344 22.9875 -12.84777344 22.9875 -13.625 24.25 C-14.140625 25.09046875 -14.65625 25.9309375 -15.1875 26.796875 C-16.45687452 28.86548533 -17.7277535 30.93315522 -19 33 C-20.65 32.67 -22.3 32.34 -24 32 C-23.49238745 27.75635907 -20.85206974 25.18935298 -18.125 22.125 C-13.38970656 16.67949128 -8.87097724 11.10342898 -4.44189453 5.40673828 C-1.06867147 1.06867147 -1.06867147 1.06867147 0 0 Z " fill="#C4D829" transform="translate(68,206)"/>
<path d="M0 0 C0 2.31 0 4.62 0 7 C-10.23 7 -20.46 7 -31 7 C-29.68 6.67 -28.36 6.34 -27 6 C-27 5.01 -27 4.02 -27 3 C-22.49646738 1.24252386 -18.82360189 0.80705592 -14 1 C-14.33 1.66 -14.66 2.32 -15 3 C-10.0076927 2.40092312 -4.88943406 0 0 0 Z " fill="#8F9EE1" transform="translate(290,182)"/>
<path d="M0 0 C0.99 0.33 1.98 0.66 3 1 C1.71086513 1.67154933 0.41859796 2.33708859 -0.875 3 C-1.59429687 3.37125 -2.31359375 3.7425 -3.0546875 4.125 C-5 5 -5 5 -7 5 C-7 5.66 -7 6.32 -7 7 C-6.01 7.33 -5.02 7.66 -4 8 C-7.40970319 9.37218673 -10.82869286 10.71953606 -14.25 12.0625 C-15.21808594 12.45244141 -16.18617188 12.84238281 -17.18359375 13.24414062 C-18.58544922 13.79038086 -18.58544922 13.79038086 -20.015625 14.34765625 C-21.30388184 14.85824585 -21.30388184 14.85824585 -22.61816406 15.37915039 C-25.19809561 16.05163562 -26.51996595 15.88608504 -29 15 C-21.66473677 5.91019254 -21.66473677 5.91019254 -17 5 C-15.7625 5.061875 -14.525 5.12375 -13.25 5.1875 C-8.65300339 5.36195907 -5.74971154 3.45777621 -1.98046875 0.99609375 C-1.32691406 0.66738281 -0.67335937 0.33867188 0 0 Z " fill="#15130B" transform="translate(147,111)"/>
<path d="M0 0 C10.89 0 21.78 0 33 0 C33 0.33 33 0.66 33 1 C32.20335937 1.12117187 31.40671875 1.24234375 30.5859375 1.3671875 C25.18426523 2.22146657 20.18289013 3.22690601 15 5 C14.34 4.67 13.68 4.34 13 4 C9.85240898 5.37707107 7.43840236 6.56159764 5 9 C2.375 9.125 2.375 9.125 0 9 C0 6.03 0 3.06 0 0 Z " fill="#E7DCB1" transform="translate(153,202)"/>
<path d="M0 0 C1.33333333 2 2.66666667 4 4 6 C4.86625 5.7834375 4.86625 5.7834375 5.75 5.5625 C6.86375 5.2840625 6.86375 5.2840625 8 5 C9.051875 4.6596875 9.051875 4.6596875 10.125 4.3125 C10.74375 4.209375 11.3625 4.10625 12 4 C12.66 4.66 13.32 5.32 14 6 C13.625 8.625 13.625 8.625 13 11 C11.35 11.33 9.7 11.66 8 12 C8 12.99 8 13.98 8 15 C3.38 15.33 -1.24 15.66 -6 16 C-5.34 14.68 -4.68 13.36 -4 12 C-1.375 11.25 -1.375 11.25 1 11 C1.33 10.01 1.66 9.02 2 8 C1.01 7.67 0.02 7.34 -1 7 C-1.04254356 5.00045254 -1.04080783 2.99958364 -1 1 C-0.67 0.67 -0.34 0.34 0 0 Z " fill="#BB5C4D" transform="translate(237,67)"/>
<path d="M0 0 C7.26 0 14.52 0 22 0 C22 1.98 22 3.96 22 6 C14.74 6 7.48 6 0 6 C0 4.02 0 2.04 0 0 Z " fill="#F36B8D" transform="translate(92,236)"/>
<path d="M0 0 C2.3125 1.25 2.3125 1.25 3.3125 2.25 C3.41073937 3.91429051 3.44223631 5.58281931 3.4375 7.25 C3.44007813 8.1575 3.44265625 9.065 3.4453125 10 C3.3125 12.25 3.3125 12.25 2.3125 13.25 C0.5 13.3828125 0.5 13.3828125 -1.6875 13.375 C-2.409375 13.37757813 -3.13125 13.38015625 -3.875 13.3828125 C-5.6875 13.25 -5.6875 13.25 -6.6875 12.25 C-6.92578125 10.0703125 -6.92578125 10.0703125 -7 7.375 C-7.03738281 6.49070313 -7.07476562 5.60640625 -7.11328125 4.6953125 C-6.6875 2.25 -6.6875 2.25 -4.8359375 0.3828125 C-2.6875 -0.75 -2.6875 -0.75 0 0 Z " fill="#FBC643" transform="translate(333.6875,219.75)"/>
<path d="M0 0 C6.93 0 13.86 0 21 0 C20.67 0.99 20.34 1.98 20 3 C17.55589154 3.86437982 15.26016617 4.53409459 12.75 5.125 C12.08097656 5.29386719 11.41195312 5.46273437 10.72265625 5.63671875 C7.16704166 6.52387602 3.60003691 7.31627206 0 8 C0 5.36 0 2.72 0 0 Z " fill="#EAD6BC" transform="translate(169,233)"/>
<path d="M0 0 C-2.31 0.66 -4.62 1.32 -7 2 C-5.68 2.99 -4.36 3.98 -3 5 C-4.98 5.99 -4.98 5.99 -7 7 C-6.67 7.66 -6.34 8.32 -6 9 C-3.47266765 9.65555119 -3.47266765 9.65555119 -1 10 C-0.67 9.01 -0.34 8.02 0 7 C-0.33 8.65 -0.66 10.3 -1 12 C-2.95803507 12.05389087 -4.91648909 12.09274217 -6.875 12.125 C-7.96554688 12.14820312 -9.05609375 12.17140625 -10.1796875 12.1953125 C-13 12 -13 12 -15 10 C-14.625 7.375 -14.625 7.375 -14 5 C-12.68 4.67 -11.36 4.34 -10 4 C-9.67 2.35 -9.34 0.7 -9 -1 C-5.22102349 -2.0497157 -3.35080929 -2.10976881 0 0 Z " fill="#AD554A" transform="translate(225,71)"/>
<path d="M0 0 C2 2.5 2 2.5 4 5 C5.11375 6.3303125 5.11375 6.3303125 6.25 7.6875 C8 10 8 10 8 12 C6.3203125 13.5078125 6.3203125 13.5078125 4.125 15.125 C3.04605469 15.93324219 3.04605469 15.93324219 1.9453125 16.7578125 C0 18 0 18 -2 18 C-2.05397335 15.5622037 -2.09365616 13.12560315 -2.125 10.6875 C-2.14175781 9.99720703 -2.15851563 9.30691406 -2.17578125 8.59570312 C-2.21217794 4.82864604 -2.14378864 3.21568296 0 0 Z " fill="#939FDE" transform="translate(140,96)"/>
<path d="M0 0 C10.07880954 0.19114984 10.07880954 0.19114984 13.5625 3.25 C17 9.82608696 17 9.82608696 17 14 C15.0625 13.1875 15.0625 13.1875 13 12 C12.67 11.01 12.34 10.02 12 9 C9.67108904 7.97299556 9.67108904 7.97299556 6.9375 7.3125 C6.01839844 7.06113281 5.09929687 6.80976562 4.15234375 6.55078125 C3.44207031 6.36902344 2.73179687 6.18726563 2 6 C2 4.68 2 3.36 2 2 C1.34 1.34 0.68 0.68 0 0 Z " fill="#D6E450" transform="translate(228,52)"/>
<path d="M0 0 C3.83616676 1.5344667 6.49393561 2.84658266 9.8125 5.125 C10.60269531 5.66382813 11.39289063 6.20265625 12.20703125 6.7578125 C12.79871094 7.16773438 13.39039063 7.57765625 14 8 C9.52456422 10.48867691 5.00565267 11.07790609 0 12 C0 8.04 0 4.08 0 0 Z " fill="#97A3DB" transform="translate(283,143)"/>
<path d="M0 0 C4.01503931 5.31305202 5.26382249 8.14061533 5 15 C7.64 15 10.28 15 13 15 C11 17 11 17 8.8359375 17.1953125 C8.02382812 17.17210937 7.21171875 17.14890625 6.375 17.125 C5.55773437 17.10695312 4.74046875 17.08890625 3.8984375 17.0703125 C3.27195313 17.04710937 2.64546875 17.02390625 2 17 C1.67 17.99 1.34 18.98 1 20 C-0.62332967 21.38576923 -2.28724465 22.72641268 -4 24 C-4.66 23.67 -5.32 23.34 -6 23 C-5.38125 22.278125 -4.7625 21.55625 -4.125 20.8125 C-0.45055476 15.94926366 0.2474882 12.25066603 0.125 6.1875 C0.10695312 5.02605469 0.08890625 3.86460937 0.0703125 2.66796875 C0.04710937 1.78753906 0.02390625 0.90710938 0 0 Z " fill="#E5DDD4" transform="translate(171,176)"/>
<path d="M0 0 C0.87462891 0.00902344 1.74925781 0.01804687 2.65039062 0.02734375 C4.78788064 0.0507043 6.92522786 0.08656753 9.0625 0.125 C9.0625 0.455 9.0625 0.785 9.0625 1.125 C3.1225 1.455 -2.8175 1.785 -8.9375 2.125 C-8.9375 5.755 -8.9375 9.385 -8.9375 13.125 C-14.73955656 7.47975578 -14.73955656 7.47975578 -16.9375 4.125 C-16.9375 3.465 -16.9375 2.805 -16.9375 2.125 C-11.16593962 0.13588693 -6.07507259 -0.1201155 0 0 Z " fill="#FCC73B" transform="translate(193.9375,83.875)"/>
<path d="M0 0 C5.25691455 1.43370397 8.51785151 4.99603099 12 9 C12 9.33 12 9.66 12 10 C8.04 10 4.08 10 0 10 C0 6.7 0 3.4 0 0 Z " fill="#C2D727" transform="translate(93,205)"/>
<path d="M0 0 C3.67889913 0.21022281 4.97774115 0.97976468 7.75 3.5 C10.70095387 7.29276203 10.88572597 11.32515332 11 16 C6.50683005 11.90328622 3.02186027 7.28565938 0 2 C0 1.34 0 0.68 0 0 Z " fill="#150D06" transform="translate(206,130)"/>
<path d="M0 0 C0.12375 0.721875 0.2475 1.44375 0.375 2.1875 C0.9904931 4.95721894 1.88444374 7.3970354 3 10 C-3.48847457 8.83207458 -6.15852574 6.26267902 -10 1 C-6.78548731 -0.60725635 -3.56387464 -0.05748185 0 0 Z " fill="#BB594E" transform="translate(207,129)"/>
<path d="M0 0 C0.33 0.99 0.66 1.98 1 3 C-1.90335375 8.24837024 -5.23241815 12.07747272 -11 14 C-13.33299825 14.03954234 -15.66708189 14.04401732 -18 14 C-18 13.67 -18 13.34 -18 13 C-17.14148438 12.78601563 -16.28296875 12.57203125 -15.3984375 12.3515625 C-11.25643103 10.70428177 -8.78018328 8.44448695 -5.625 5.375 C-4.80708984 4.6015625 -4.80708984 4.6015625 -3.97265625 3.8125 C-2.64026652 2.55023605 -1.31896759 1.27628255 0 0 Z " fill="#0F0B0B" transform="translate(220,161)"/>
<path d="M0 0 C0.66 0.33 1.32 0.66 2 1 C1.01 1.66 0.02 2.32 -1 3 C-0.67 2.01 -0.34 1.02 0 0 Z M-15 6 C-11.7 6.33 -8.4 6.66 -5 7 C-4.67 8.32 -4.34 9.64 -4 11 C-3.67 11.99 -3.34 12.98 -3 14 C-5.625 14.4375 -5.625 14.4375 -9 14 C-11.3591151 11.9278043 -13.24293904 9.59820716 -15 7 C-15 6.67 -15 6.34 -15 6 Z " fill="#202020" transform="translate(184,148)"/>
<path d="M0 0 C1.54571278 2.31856917 2.79618552 4.50638429 4 7 C4.99 6.67 5.98 6.34 7 6 C8.22520264 2.99152582 8.22520264 2.99152582 9 0 C9.33 0 9.66 0 10 0 C10.02688151 1.64574566 10.04634123 3.29161413 10.0625 4.9375 C10.07410156 5.85402344 10.08570313 6.77054688 10.09765625 7.71484375 C10 10 10 10 9 11 C7.1875 11.1328125 7.1875 11.1328125 5 11.125 C4.278125 11.12757813 3.55625 11.13015625 2.8125 11.1328125 C1 11 1 11 0 10 C-0.07205511 8.31391034 -0.08386068 6.62499341 -0.0625 4.9375 C-0.05347656 4.01839844 -0.04445313 3.09929687 -0.03515625 2.15234375 C-0.02355469 1.44207031 -0.01195312 0.73179687 0 0 Z " fill="#FAB34E" transform="translate(327,222)"/>
<path d="M0 0 C0.66 0.33 1.32 0.66 2 1 C-0.41509358 4.277627 -2.16915101 6.54319827 -6 8 C-8.796875 8.1953125 -8.796875 8.1953125 -11.75 8.125 C-12.73484375 8.10695312 -13.7196875 8.08890625 -14.734375 8.0703125 C-15.85585937 8.03550781 -15.85585937 8.03550781 -17 8 C-14.26965065 5.26965065 -11.02687784 4.21336269 -7.5 2.8125 C-6.81035156 2.52697266 -6.12070313 2.24144531 -5.41015625 1.94726562 C-3.63095824 1.23454595 -1.81682212 0.6104689 0 0 Z " fill="#141414" transform="translate(168,193)"/>
<path d="M0 0 C4.29 0 8.58 0 13 0 C13.66 1.32 14.32 2.64 15 4 C14 5 14 5 11.71484375 5.09765625 C10.34005859 5.08025391 10.34005859 5.08025391 8.9375 5.0625 C8.01839844 5.05347656 7.09929687 5.04445313 6.15234375 5.03515625 C5.44207031 5.02355469 4.73179687 5.01195313 4 5 C3.67 4.01 3.34 3.02 3 2 C2.01 1.34 1.02 0.68 0 0 Z " fill="#CD6958" transform="translate(243,99)"/>
<path d="M0 0 C0.99 0 1.98 0 3 0 C1.36490363 4.5004837 -0.96598833 7.96262025 -3.7578125 11.81640625 C-5.32964233 14.16076684 -5.32964233 14.16076684 -5 18 C-5.99 17.67 -6.98 17.34 -8 17 C-8.47499169 11.75173115 -7.32603701 9.29840598 -4.1875 5.125 C-3.47980469 4.15820312 -2.77210938 3.19140625 -2.04296875 2.1953125 C-1.36878906 1.47085938 -0.69460938 0.74640625 0 0 Z " fill="#2D210B" transform="translate(274,115)"/>
<path d="M0 0 C1.65 0.33 3.3 0.66 5 1 C5 5.29 5 9.58 5 14 C4.34 14 3.68 14 3 14 C0.70986347 10.5647952 0.82157027 9.014669 1 5 C-0.32 4.67 -1.64 4.34 -3 4 C-2.01 4 -1.02 4 0 4 C0 2.68 0 1.36 0 0 Z " fill="#351916" transform="translate(194,100)"/>
<path d="M0 0 C0 4.20547571 -2.36738124 6.16710361 -5 9.1875 C-5.47695313 9.74630859 -5.95390625 10.30511719 -6.4453125 10.88085938 C-7.62366206 12.25952836 -8.81098952 13.63051472 -10 15 C-10.6640625 13.2890625 -10.6640625 13.2890625 -11 11 C-9.9609375 8.7109375 -9.9609375 8.7109375 -8.375 6.375 C-7.86710937 5.59898437 -7.35921875 4.82296875 -6.8359375 4.0234375 C-4.72737177 1.69952888 -2.9615345 0.94000924 0 0 Z " fill="#DDE474" transform="translate(65,218)"/>
<path d="M0 0 C0 2.97 0 5.94 0 9 C-0.99 8.67 -1.98 8.34 -3 8 C-3.33 8.66 -3.66 9.32 -4 10 C-4.66 10 -5.32 10 -6 10 C-6 7.03 -6 4.06 -6 1 C-3 0 -3 0 0 0 Z " fill="#F37A95" transform="translate(209,83)"/>
<path d="M0 0 C-2.31 0.66 -4.62 1.32 -7 2 C-5.68 2.99 -4.36 3.98 -3 5 C-5.91708924 6.98362069 -7.12380904 6.9876191 -10.75 6.625 C-11.8225 6.41875 -12.895 6.2125 -14 6 C-13.67 5.34 -13.34 4.68 -13 4 C-12.01 4 -11.02 4 -10 4 C-9.67 2.35 -9.34 0.7 -9 -1 C-5.22102349 -2.0497157 -3.35080929 -2.10976881 0 0 Z " fill="#CA6E63" transform="translate(225,71)"/>
<path d="M0 0 C4.01653974 1.33884658 5.08195419 3.90257048 7.125 7.375 C7.48464844 7.96539062 7.84429687 8.55578125 8.21484375 9.1640625 C9.77138191 11.75246303 11.04185129 14.12555386 12 17 C11.01 17 10.02 17 9 17 C7.24609375 14.55078125 7.24609375 14.55078125 5.4375 11.3125 C4.83808594 10.25675781 4.23867187 9.20101562 3.62109375 8.11328125 C2.23100479 5.44364052 1.05045137 2.81688203 0 0 Z " fill="#EDE1C9" transform="translate(200,104)"/>
<path d="M0 0 C0.99 0.33 1.98 0.66 3 1 C2.67 1.66 2.34 2.32 2 3 C2.99 3 3.98 3 5 3 C4.67 2.01 4.34 1.02 4 0 C6.97 0 9.94 0 13 0 C13 1.65 13 3.3 13 5 C9.04 4.67 5.08 4.34 1 4 C0.67 2.68 0.34 1.36 0 0 Z " fill="#AC5246" transform="translate(245,116)"/>
<path d="M0 0 C5.50119628 2.03748011 9.59366469 7.80738171 12 13 C12.1875 16.8125 12.1875 16.8125 12 20 C9.57648317 17.57648317 8.90815126 15.44675445 7.6875 12.25 C5.69612742 7.31898219 3.69248705 3.79798668 0 0 Z " fill="#DFCDA8" transform="translate(146,120)"/>
<path d="M0 0 C3.63 0 7.26 0 11 0 C11 1.32 11 2.64 11 4 C7.7 4 4.4 4 1 4 C0.67 2.68 0.34 1.36 0 0 Z " fill="#C95D4F" transform="translate(247,111)"/>
<path d="M0 0 C1.65 0 3.3 0 5 0 C5 0.99 5 1.98 5 3 C8.63 3.33 12.26 3.66 16 4 C16 4.33 16 4.66 16 5 C11.38 5.33 6.76 5.66 2 6 C1.67 6.99 1.34 7.98 1 9 C0.67 6.03 0.34 3.06 0 0 Z " fill="#43231E" transform="translate(242,106)"/>
<path d="M0 0 C0.66 0.33 1.32 0.66 2 1 C-3.33333333 6.33333333 -8.66666667 11.66666667 -14 17 C-14 13 -14 13 -11.953125 10.78125 C-11.06109375 10.0284375 -10.1690625 9.275625 -9.25 8.5 C-6.04330332 5.76211862 -2.9411945 3.02365789 0 0 Z " fill="#1D1A1A" transform="translate(200,148)"/>
<path d="M0 0 C3.64782588 0.89169077 5.54676905 1.41079976 7.875 4.4375 C9 7 9 7 9 10 C5.31401867 9.00378883 4.21742111 8.3727219 2.25 5 C1.8375 4.01 1.425 3.02 1 2 C0.67 1.34 0.34 0.68 0 0 Z " fill="#D3E33B" transform="translate(239,53)"/>
<path d="M0 0 C-0.99 0.33 -1.98 0.66 -3 1 C-3 1.99 -3 2.98 -3 4 C-6.3 4.33 -9.6 4.66 -13 5 C-13 4.01 -13 3.02 -13 2 C-8.49646738 0.24252386 -4.82360189 -0.19294408 0 0 Z " fill="#8595DE" transform="translate(276,183)"/>
<path d="M0 0 C2.0625 0.4375 2.0625 0.4375 4 1 C1.72402354 3.49552403 -0.60721178 5.06622986 -3.5625 6.6875 C-4.34753906 7.12449219 -5.13257813 7.56148438 -5.94140625 8.01171875 C-8 9 -8 9 -10 9 C-10 8.34 -10 7.68 -10 7 C-8.06640625 5.52734375 -8.06640625 5.52734375 -5.5625 3.9375 C-2.6281857 2.16321108 -2.6281857 2.16321108 0 0 Z " fill="#F1C040" transform="translate(146,108)"/>
<path d="M0 0 C-0.33 0.66 -0.66 1.32 -1 2 C-2.32 1.67 -3.64 1.34 -5 1 C-5 2.32 -5 3.64 -5 5 C-6.32 5.33 -7.64 5.66 -9 6 C-9.99 4.35 -10.98 2.7 -12 1 C-8.0186217 -0.3271261 -4.14954773 -0.06915913 0 0 Z " fill="#C05B4F" transform="translate(199,99)"/>
<path d="M0 0 C0.66 0.33 1.32 0.66 2 1 C1.01 1.66 0.02 2.32 -1 3 C-0.67 2.01 -0.34 1.02 0 0 Z M-8 7 C-7.01 7.33 -6.02 7.66 -5 8 C-3.8125 11.0625 -3.8125 11.0625 -3 14 C-4.98 14 -6.96 14 -9 14 C-8.01 13.34 -7.02 12.68 -6 12 C-7.32 10.68 -8.64 9.36 -10 8 C-9.34 7.67 -8.68 7.34 -8 7 Z " fill="#443D3C" transform="translate(184,148)"/>
<path d="M0 0 C3.37503669 1.1858237 5.64722731 2.27573689 8 5 C7.67 5.99 7.34 6.98 7 8 C4.69 7.01 2.38 6.02 0 5 C0 3.35 0 1.7 0 0 Z " fill="#7183D8" transform="translate(186,210)"/>
<path d="M0 0 C5.96351455 1.27789598 8.48417174 4.33716394 12 9 C11.67 9.66 11.34 10.32 11 11 C9.16365304 9.35742342 7.3308593 7.71117305 5.5 6.0625 C4.97535156 5.59392578 4.45070312 5.12535156 3.91015625 4.64257812 C2.5878256 3.44904592 1.29166061 2.22665821 0 1 C0 0.67 0 0.34 0 0 Z " fill="#D2C0B0" transform="translate(205,137)"/>
<path d="M0 0 C1.32 0.33 2.64 0.66 4 1 C4 1.99 4 2.98 4 4 C9.445 3.505 9.445 3.505 15 3 C15 3.99 15 4.98 15 6 C13.06183265 5.8858134 11.12444901 5.75826577 9.1875 5.625 C8.10855469 5.55539063 7.02960938 5.48578125 5.91796875 5.4140625 C3 5 3 5 0 3 C0 2.01 0 1.02 0 0 Z " fill="#23120F" transform="translate(243,100)"/>
<path d="M0 0 C2.0625 0.4375 2.0625 0.4375 4 1 C3.67 2.32 3.34 3.64 3 5 C1.35 5.33 -0.3 5.66 -2 6 C-1.125 1.125 -1.125 1.125 0 0 Z " fill="#060606" transform="translate(235,74)"/>
<path d="M0 0 C2.625 0.375 2.625 0.375 5 1 C5 2.32 5 3.64 5 5 C2.625 5.1875 2.625 5.1875 0 5 C-0.66 4.01 -1.32 3.02 -2 2 C-1.34 1.34 -0.68 0.68 0 0 Z " fill="#040303" transform="translate(219,76)"/>
<path d="M0 0 C0.99 0.33 1.98 0.66 3 1 C-0.625 5.875 -0.625 5.875 -4 7 C-4.33 6.01 -4.66 5.02 -5 4 C-2.6875 1.9375 -2.6875 1.9375 0 0 Z " fill="#FCC031" transform="translate(228,134)"/>
<path d="M0 0 C4.75 1.875 4.75 1.875 7 3 C7 3.99 7 4.98 7 6 C5.35 6 3.7 6 2 6 C1.34 4.02 0.68 2.04 0 0 Z " fill="#E63E5C" transform="translate(184,164)"/>
<path d="M0 0 C0.66 0 1.32 0 2 0 C5 5.625 5 5.625 5 9 C4.01 9 3.02 9 2 9 C1.34 6.03 0.68 3.06 0 0 Z " fill="#E6DBC5" transform="translate(167,165)"/>
<path d="M0 0 C0.99 0 1.98 0 3 0 C1.87548273 2.9719385 0.77706209 5.33440687 -1 8 C-1.99 7.67 -2.98 7.34 -4 7 C-2.68 4.69 -1.36 2.38 0 0 Z " fill="#25190A" transform="translate(274,115)"/>
<path d="M0 0 C0 0.99 0 1.98 0 3 C-4.455 3.495 -4.455 3.495 -9 4 C-8.34 3.67 -7.68 3.34 -7 3 C-7 2.34 -7 1.68 -7 1 C-4 0 -4 0 0 0 Z " fill="#7688DA" transform="translate(263,185)"/>
<path d="M0 0 C1.54571278 2.31856917 2.79618552 4.50638429 4 7 C3.34 7.66 2.68 8.32 2 9 C1.01 8.34 0.02 7.68 -1 7 C-1.25 3.9375 -1.25 3.9375 -1 1 C-0.67 0.67 -0.34 0.34 0 0 Z " fill="#CA705C" transform="translate(237,67)"/>
<path d="M0 0 C0.99 0.33 1.98 0.66 3 1 C2.67 2.65 2.34 4.3 2 6 C0.68 5.34 -0.64 4.68 -2 4 C-1.34 2.68 -0.68 1.36 0 0 Z " fill="#F4E6C7" transform="translate(331,224)"/>
<path d="M0 0 C0.66 0.33 1.32 0.66 2 1 C0.515 2.485 0.515 2.485 -1 4 C-0.67 4.66 -0.34 5.32 0 6 C-3.47325181 7.1577506 -6.36067448 7.06866652 -10 7 C-10 6.67 -10 6.34 -10 6 C-8.63875 5.62875 -8.63875 5.62875 -7.25 5.25 C-3.89648511 3.96018658 -2.32291764 2.68028958 0 0 Z " fill="#40262D" transform="translate(212,168)"/>
<path d="M0 0 C0.33 0.99 0.66 1.98 1 3 C5.29 3.66 9.58 4.32 14 5 C14 5.33 14 5.66 14 6 C9.71 6 5.42 6 1 6 C0.67 4.02 0.34 2.04 0 0 Z " fill="#93473D" transform="translate(242,100)"/>
<path d="M0 0 C2.02907167 3.3146667 2.12742133 5.4315979 1.625 9.25 C1.51414063 10.14203125 1.40328125 11.0340625 1.2890625 11.953125 C1.19367188 12.62859375 1.09828125 13.3040625 1 14 C-1.105184 10.842224 -1.25289344 10.04602866 -1.1875 6.4375 C-1.18105469 5.65246094 -1.17460937 4.86742188 -1.16796875 4.05859375 C-1 2 -1 2 0 0 Z " fill="#D59D89" transform="translate(199,100)"/>
<path d="M0 0 C-6.75 2 -6.75 2 -9 2 C-9 1.01 -9 0.02 -9 -1 C-5.22102349 -2.0497157 -3.35080929 -2.10976881 0 0 Z " fill="#CB6A4D" transform="translate(225,71)"/>
<path d="M0 0 C1 2 1 2 0.25 4.5 C-1 7 -1 7 -4 9 C-3.46930939 5.17902761 -2.50298434 2.93828597 0 0 Z " fill="#DAE366" transform="translate(58,224)"/>
<path d="M0 0 C3.55780196 0.60990891 6.6828589 1.5783681 10 3 C10 3.66 10 4.32 10 5 C6.7 4.01 3.4 3.02 0 2 C0 1.34 0 0.68 0 0 Z " fill="#C3D929" transform="translate(230,58)"/>
<path d="M0 0 C2 2 2 2 2.125 4.625 C2.08375 5.40875 2.0425 6.1925 2 7 C1.01 6.67 0.02 6.34 -1 6 C-1.042721 4.33388095 -1.04063832 2.66617115 -1 1 C-0.67 0.67 -0.34 0.34 0 0 Z " fill="#070302" transform="translate(259,115)"/>
</svg>
